<?xml version="1.0" encoding="UTF-8" standalone="no"?><svg xmlns="http://www.w3.org/2000/svg" xmlns:xlink="http://www.w3.org/1999/xlink" contentScriptType="application/ecmascript" contentStyleType="text/css" height="1042px" preserveAspectRatio="none" style="width:677px;height:1042px;background:#FFFFFF;" version="1.1" viewBox="0 0 677 1042" width="677px" zoomAndPan="magnify"><defs><filter height="300%" id="fy9qxwta3ud5j" width="300%" x="-1" y="-1"><feGaussianBlur result="blurOut" stdDeviation="2.0"/><feColorMatrix in="blurOut" result="blurOut2" type="matrix" values="0 0 0 0 0 0 0 0 0 0 0 0 0 0 0 0 0 0 .4 0"/><feOffset dx="4.0" dy="4.0" in="blurOut2" result="blurOut3"/><feBlend in="SourceGraphic" in2="blurOut3" mode="normal"/></filter></defs><g><!--MD5=[f55d592c5130daf0ceebcd2d990036d6]
class Bank--><rect codeLine="1" fill="#FEFECE" filter="url(#fy9qxwta3ud5j)" height="99.2188" id="Bank" style="stroke:#A80036;stroke-width:1.5;" width="254" x="285.976" y="7"/><ellipse cx="394.226" cy="23" fill="#ADD1B2" rx="11" ry="11" style="stroke:#A80036;stroke-width:1.0;"/><path d="M396.5697,18.6719 C395.6322,18.2344 395.0385,18.0938 394.1635,18.0938 C391.5385,18.0938 389.5385,20.1719 389.5385,22.8906 L389.5385,24.0156 C389.5385,26.5938 391.6479,28.4844 394.5385,28.4844 C395.7572,28.4844 396.9135,28.1875 397.6635,27.6406 C398.2416,27.2344 398.5697,26.7813 398.5697,26.3906 C398.5697,25.9375 398.1791,25.5469 397.7104,25.5469 C397.4916,25.5469 397.2885,25.625 397.101,25.8125 C396.6479,26.2969 396.6479,26.2969 396.4604,26.3906 C396.0385,26.6563 395.351,26.7813 394.5854,26.7813 C392.5385,26.7813 391.2416,25.6875 391.2416,23.9844 L391.2416,22.8906 C391.2416,21.1094 392.4916,19.7969 394.226,19.7969 C394.8041,19.7969 395.4135,19.9531 395.8822,20.2031 C396.3666,20.4844 396.5385,20.7031 396.6322,21.1094 C396.6947,21.5156 396.726,21.6406 396.8666,21.7656 C397.0072,21.9063 397.2416,22.0156 397.4604,22.0156 C397.726,22.0156 397.9916,21.875 398.1635,21.6563 C398.2729,21.5 398.3041,21.3125 398.3041,20.8906 L398.3041,19.4688 C398.3041,19.0313 398.2885,18.9063 398.1947,18.75 C398.0385,18.4844 397.7572,18.3438 397.4604,18.3438 C397.1635,18.3438 396.9604,18.4375 396.7416,18.75 L396.5697,18.6719 Z " fill="#000000"/><text fill="#000000" font-family="sans-serif" font-size="12" lengthAdjust="spacing" textLength="29" x="414.726" y="27.1543">Bank</text><line style="stroke:#A80036;stroke-width:1.5;" x1="286.976" x2="538.976" y1="39" y2="39"/><rect fill="none" height="6" style="stroke:#C82930;stroke-width:1.0;" width="6" x="293.976" y="47"/><text fill="#000000" font-family="sans-serif" font-size="11" lengthAdjust="spacing" textLength="107" x="305.976" y="53.2104">Bank bankInstance</text><line style="stroke:#A80036;stroke-width:1.5;" x1="286.976" x2="538.976" y1="59.8047" y2="59.8047"/><rect fill="#F24D5C" height="6" style="stroke:#C82930;stroke-width:1.0;" width="6" x="293.976" y="67.8047"/><text fill="#000000" font-family="sans-serif" font-size="11" lengthAdjust="spacing" textLength="35" x="305.976" y="74.0151">bank()</text><ellipse cx="296.976" cy="83.6094" fill="#84BE84" rx="3" ry="3" style="stroke:#038048;stroke-width:1.0;"/><text fill="#000000" font-family="sans-serif" font-size="11" lengthAdjust="spacing" textLength="135" x="305.976" y="86.8198">Bank getInstanceBank()</text><ellipse cx="296.976" cy="96.4141" fill="#84BE84" rx="3" ry="3" style="stroke:#038048;stroke-width:1.0;"/><text fill="#000000" font-family="sans-serif" font-size="11" lengthAdjust="spacing" textLength="228" x="305.976" y="99.6245">Account getAccount(int accountNumber)</text><!--MD5=[f9a29335b499db729be669fd1bd54958]
class Account--><rect codeLine="7" fill="#FEFECE" filter="url(#fy9qxwta3ud5j)" height="188.8516" id="Account" style="stroke:#A80036;stroke-width:1.5;" width="198" x="313.976" y="183"/><ellipse cx="384.726" cy="199" fill="#ADD1B2" rx="11" ry="11" style="stroke:#A80036;stroke-width:1.0;"/><path d="M387.0697,194.6719 C386.1322,194.2344 385.5385,194.0938 384.6635,194.0938 C382.0385,194.0938 380.0385,196.1719 380.0385,198.8906 L380.0385,200.0156 C380.0385,202.5938 382.1479,204.4844 385.0385,204.4844 C386.2572,204.4844 387.4135,204.1875 388.1635,203.6406 C388.7416,203.2344 389.0697,202.7813 389.0697,202.3906 C389.0697,201.9375 388.6791,201.5469 388.2104,201.5469 C387.9916,201.5469 387.7885,201.625 387.601,201.8125 C387.1479,202.2969 387.1479,202.2969 386.9604,202.3906 C386.5385,202.6563 385.851,202.7813 385.0854,202.7813 C383.0385,202.7813 381.7416,201.6875 381.7416,199.9844 L381.7416,198.8906 C381.7416,197.1094 382.9916,195.7969 384.726,195.7969 C385.3041,195.7969 385.9135,195.9531 386.3822,196.2031 C386.8666,196.4844 387.0385,196.7031 387.1322,197.1094 C387.1947,197.5156 387.226,197.6406 387.3666,197.7656 C387.5072,197.9063 387.7416,198.0156 387.9604,198.0156 C388.226,198.0156 388.4916,197.875 388.6635,197.6563 C388.7729,197.5 388.8041,197.3125 388.8041,196.8906 L388.8041,195.4688 C388.8041,195.0313 388.7885,194.9063 388.6947,194.75 C388.5385,194.4844 388.2572,194.3438 387.9604,194.3438 C387.6635,194.3438 387.4604,194.4375 387.2416,194.75 L387.0697,194.6719 Z " fill="#000000"/><text fill="#000000" font-family="sans-serif" font-size="12" lengthAdjust="spacing" textLength="48" x="405.226" y="203.1543">Account</text><line style="stroke:#A80036;stroke-width:1.5;" x1="314.976" x2="510.976" y1="215" y2="215"/><rect fill="none" height="6" style="stroke:#C82930;stroke-width:1.0;" width="6" x="321.976" y="223"/><text fill="#000000" font-family="sans-serif" font-size="11" lengthAdjust="spacing" textLength="107" x="333.976" y="229.2104">int accountNumber</text><rect fill="none" height="6" style="stroke:#C82930;stroke-width:1.0;" width="6" x="321.976" y="235.8047"/><text fill="#000000" font-family="sans-serif" font-size="11" lengthAdjust="spacing" textLength="70" x="333.976" y="242.0151">String name</text><rect fill="none" height="6" style="stroke:#C82930;stroke-width:1.0;" width="6" x="321.976" y="248.6094"/><text fill="#000000" font-family="sans-serif" font-size="11" lengthAdjust="spacing" textLength="47" x="333.976" y="254.8198">String id</text><rect fill="none" height="6" style="stroke:#C82930;stroke-width:1.0;" width="6" x="321.976" y="261.4141"/><text fill="#000000" font-family="sans-serif" font-size="11" lengthAdjust="spacing" textLength="88" x="333.976" y="267.6245">double balance</text><rect fill="none" height="6" style="stroke:#C82930;stroke-width:1.0;" width="6" x="321.976" y="274.2188"/><text fill="#000000" font-family="sans-serif" font-size="11" lengthAdjust="spacing" textLength="113" x="333.976" y="280.4292">double interestRate</text><rect fill="none" height="6" style="stroke:#C82930;stroke-width:1.0;" width="6" x="321.976" y="287.0234"/><text fill="#000000" font-family="sans-serif" font-size="11" lengthAdjust="spacing" textLength="104" x="333.976" y="293.2339">AccountType type</text><rect fill="none" height="6" style="stroke:#C82930;stroke-width:1.0;" width="6" x="321.976" y="299.8281"/><text fill="#000000" font-family="sans-serif" font-size="11" lengthAdjust="spacing" textLength="55" x="333.976" y="306.0386">User user</text><line style="stroke:#A80036;stroke-width:1.5;" x1="314.976" x2="510.976" y1="312.6328" y2="312.6328"/><ellipse cx="324.976" cy="323.6328" fill="#84BE84" rx="3" ry="3" style="stroke:#038048;stroke-width:1.0;"/><text fill="#000000" font-family="sans-serif" font-size="11" lengthAdjust="spacing" textLength="53" x="333.976" y="326.8433">Account()</text><ellipse cx="324.976" cy="336.4375" fill="#84BE84" rx="3" ry="3" style="stroke:#038048;stroke-width:1.0;"/><text fill="#000000" font-family="sans-serif" font-size="11" lengthAdjust="spacing" textLength="164" x="333.976" y="339.6479">void deposit(double amount)</text><ellipse cx="324.976" cy="349.2422" fill="#84BE84" rx="3" ry="3" style="stroke:#038048;stroke-width:1.0;"/><text fill="#000000" font-family="sans-serif" font-size="11" lengthAdjust="spacing" textLength="172" x="333.976" y="352.4526">void withdraw(double amount)</text><polygon fill="#4177AF" points="324.976,358.0469,320.976,364.0469,328.976,364.0469" style="stroke:#1963A0;stroke-width:1.0;"/><text fill="#000000" font-family="sans-serif" font-size="11" lengthAdjust="spacing" textLength="169" x="333.976" y="365.2573">int generateAccountNumber()</text><!--MD5=[3fd616f346a44cd59a91eb10b19e157c]
class User--><rect codeLine="20" fill="#FEFECE" filter="url(#fy9qxwta3ud5j)" height="150.4375" id="User" style="stroke:#A80036;stroke-width:1.5;" width="302" x="82.9759" y="449"/><ellipse cx="215.2259" cy="465" fill="#ADD1B2" rx="11" ry="11" style="stroke:#A80036;stroke-width:1.0;"/><path d="M217.5696,460.6719 C216.6321,460.2344 216.0384,460.0938 215.1634,460.0938 C212.5384,460.0938 210.5384,462.1719 210.5384,464.8906 L210.5384,466.0156 C210.5384,468.5938 212.6478,470.4844 215.5384,470.4844 C216.7571,470.4844 217.9134,470.1875 218.6634,469.6406 C219.2415,469.2344 219.5696,468.7813 219.5696,468.3906 C219.5696,467.9375 219.179,467.5469 218.7103,467.5469 C218.4915,467.5469 218.2884,467.625 218.1009,467.8125 C217.6478,468.2969 217.6478,468.2969 217.4603,468.3906 C217.0384,468.6563 216.3509,468.7813 215.5853,468.7813 C213.5384,468.7813 212.2415,467.6875 212.2415,465.9844 L212.2415,464.8906 C212.2415,463.1094 213.4915,461.7969 215.2259,461.7969 C215.804,461.7969 216.4134,461.9531 216.8821,462.2031 C217.3665,462.4844 217.5384,462.7031 217.6321,463.1094 C217.6946,463.5156 217.7259,463.6406 217.8665,463.7656 C218.0071,463.9063 218.2415,464.0156 218.4603,464.0156 C218.7259,464.0156 218.9915,463.875 219.1634,463.6563 C219.2728,463.5 219.304,463.3125 219.304,462.8906 L219.304,461.4688 C219.304,461.0313 219.2884,460.9063 219.1946,460.75 C219.0384,460.4844 218.7571,460.3438 218.4603,460.3438 C218.1634,460.3438 217.9603,460.4375 217.7415,460.75 L217.5696,460.6719 Z " fill="#000000"/><text fill="#000000" font-family="sans-serif" font-size="12" lengthAdjust="spacing" textLength="29" x="235.7259" y="469.1543">User</text><line style="stroke:#A80036;stroke-width:1.5;" x1="83.9759" x2="383.9759" y1="481" y2="481"/><rect fill="none" height="6" style="stroke:#C82930;stroke-width:1.0;" width="6" x="90.9759" y="489"/><text fill="#000000" font-family="sans-serif" font-size="11" lengthAdjust="spacing" textLength="47" x="102.9759" y="495.2104">String id</text><rect fill="none" height="6" style="stroke:#C82930;stroke-width:1.0;" width="6" x="90.9759" y="501.8047"/><text fill="#000000" font-family="sans-serif" font-size="11" lengthAdjust="spacing" textLength="95" x="102.9759" y="508.0151">String username</text><rect fill="none" height="6" style="stroke:#C82930;stroke-width:1.0;" width="6" x="90.9759" y="514.6094"/><text fill="#000000" font-family="sans-serif" font-size="11" lengthAdjust="spacing" textLength="69" x="102.9759" y="520.8198">String email</text><rect fill="none" height="6" style="stroke:#C82930;stroke-width:1.0;" width="6" x="90.9759" y="527.4141"/><text fill="#000000" font-family="sans-serif" font-size="11" lengthAdjust="spacing" textLength="90" x="102.9759" y="533.6245">String password</text><rect fill="none" height="6" style="stroke:#C82930;stroke-width:1.0;" width="6" x="90.9759" y="540.2188"/><text fill="#000000" font-family="sans-serif" font-size="11" lengthAdjust="spacing" textLength="73" x="102.9759" y="546.4292">List accounts</text><line style="stroke:#A80036;stroke-width:1.5;" x1="83.9759" x2="383.9759" y1="553.0234" y2="553.0234"/><ellipse cx="93.9759" cy="564.0234" fill="#84BE84" rx="3" ry="3" style="stroke:#038048;stroke-width:1.0;"/><text fill="#000000" font-family="sans-serif" font-size="11" lengthAdjust="spacing" textLength="34" x="102.9759" y="567.2339">User()</text><ellipse cx="93.9759" cy="576.8281" fill="#84BE84" rx="3" ry="3" style="stroke:#038048;stroke-width:1.0;"/><text fill="#000000" font-family="sans-serif" font-size="11" lengthAdjust="spacing" textLength="220" x="102.9759" y="580.0386">void addAccount(Account newAccount)</text><ellipse cx="93.9759" cy="589.6328" fill="#84BE84" rx="3" ry="3" style="stroke:#038048;stroke-width:1.0;"/><text fill="#000000" font-family="sans-serif" font-size="11" lengthAdjust="spacing" textLength="276" x="102.9759" y="592.8433">void removeAccount(Account unwantedAccount)</text><!--MD5=[50410012277a53ec9046333ebc973b07]
class DataManager--><rect codeLine="30" fill="#FEFECE" filter="url(#fy9qxwta3ud5j)" height="137.6328" id="DataManager" style="stroke:#A80036;stroke-width:1.5;" width="172" x="266.976" y="676"/><ellipse cx="309.426" cy="692" fill="#ADD1B2" rx="11" ry="11" style="stroke:#A80036;stroke-width:1.0;"/><path d="M311.7697,687.6719 C310.8322,687.2344 310.2385,687.0938 309.3635,687.0938 C306.7385,687.0938 304.7385,689.1719 304.7385,691.8906 L304.7385,693.0156 C304.7385,695.5938 306.8479,697.4844 309.7385,697.4844 C310.9572,697.4844 312.1135,697.1875 312.8635,696.6406 C313.4416,696.2344 313.7697,695.7813 313.7697,695.3906 C313.7697,694.9375 313.3791,694.5469 312.9104,694.5469 C312.6916,694.5469 312.4885,694.625 312.301,694.8125 C311.8479,695.2969 311.8479,695.2969 311.6604,695.3906 C311.2385,695.6563 310.551,695.7813 309.7854,695.7813 C307.7385,695.7813 306.4416,694.6875 306.4416,692.9844 L306.4416,691.8906 C306.4416,690.1094 307.6916,688.7969 309.426,688.7969 C310.0041,688.7969 310.6135,688.9531 311.0822,689.2031 C311.5666,689.4844 311.7385,689.7031 311.8322,690.1094 C311.8947,690.5156 311.926,690.6406 312.0666,690.7656 C312.2072,690.9063 312.4416,691.0156 312.6604,691.0156 C312.926,691.0156 313.1916,690.875 313.3635,690.6563 C313.4729,690.5 313.5041,690.3125 313.5041,689.8906 L313.5041,688.4688 C313.5041,688.0313 313.4885,687.9063 313.3947,687.75 C313.2385,687.4844 312.9572,687.3438 312.6604,687.3438 C312.3635,687.3438 312.1604,687.4375 311.9416,687.75 L311.7697,687.6719 Z " fill="#000000"/><text fill="#000000" font-family="sans-serif" font-size="12" lengthAdjust="spacing" textLength="79" x="329.526" y="696.1543">DataManager</text><line style="stroke:#A80036;stroke-width:1.5;" x1="267.976" x2="437.976" y1="708" y2="708"/><rect fill="none" height="6" style="stroke:#C82930;stroke-width:1.0;" width="6" x="274.976" y="716"/><text fill="#000000" font-family="sans-serif" font-size="11" lengthAdjust="spacing" textLength="62" x="286.976" y="722.2104">String path</text><rect fill="none" height="6" style="stroke:#C82930;stroke-width:1.0;" width="6" x="274.976" y="728.8047"/><text fill="#000000" font-family="sans-serif" font-size="11" lengthAdjust="spacing" textLength="67" x="286.976" y="735.0151">List userList</text><rect fill="none" height="6" style="stroke:#C82930;stroke-width:1.0;" width="6" x="274.976" y="741.6094"/><text fill="#000000" font-family="sans-serif" font-size="11" lengthAdjust="spacing" textLength="86" x="286.976" y="747.8198">List accountList</text><rect fill="none" height="6" style="stroke:#C82930;stroke-width:1.0;" width="6" x="274.976" y="754.4141"/><text fill="#000000" font-family="sans-serif" font-size="11" lengthAdjust="spacing" textLength="104" x="286.976" y="760.6245">List transactionList</text><line style="stroke:#A80036;stroke-width:1.5;" x1="267.976" x2="437.976" y1="767.2188" y2="767.2188"/><ellipse cx="277.976" cy="778.2188" fill="#84BE84" rx="3" ry="3" style="stroke:#038048;stroke-width:1.0;"/><text fill="#000000" font-family="sans-serif" font-size="11" lengthAdjust="spacing" textLength="146" x="286.976" y="781.4292">DataManager(String path)</text><ellipse cx="277.976" cy="791.0234" fill="#84BE84" rx="3" ry="3" style="stroke:#038048;stroke-width:1.0;"/><text fill="#000000" font-family="sans-serif" font-size="11" lengthAdjust="spacing" textLength="68" x="286.976" y="794.2339">void parse()</text><ellipse cx="277.976" cy="803.8281" fill="#84BE84" rx="3" ry="3" style="stroke:#038048;stroke-width:1.0;"/><text fill="#000000" font-family="sans-serif" font-size="11" lengthAdjust="spacing" textLength="64" x="286.976" y="807.0386">void save()</text><!--MD5=[4555bb1b0911a5adf28ce6dbe60fed2e]
class Transaction--><rect codeLine="39" fill="#FEFECE" filter="url(#fy9qxwta3ud5j)" height="137.6328" id="Transaction" style="stroke:#A80036;stroke-width:1.5;" width="206" x="434.976" y="891"/><ellipse cx="499.226" cy="907" fill="#ADD1B2" rx="11" ry="11" style="stroke:#A80036;stroke-width:1.0;"/><path d="M501.5697,902.6719 C500.6322,902.2344 500.0385,902.0938 499.1635,902.0938 C496.5385,902.0938 494.5385,904.1719 494.5385,906.8906 L494.5385,908.0156 C494.5385,910.5938 496.6479,912.4844 499.5385,912.4844 C500.7572,912.4844 501.9135,912.1875 502.6635,911.6406 C503.2416,911.2344 503.5697,910.7813 503.5697,910.3906 C503.5697,909.9375 503.1791,909.5469 502.7104,909.5469 C502.4916,909.5469 502.2885,909.625 502.101,909.8125 C501.6479,910.2969 501.6479,910.2969 501.4604,910.3906 C501.0385,910.6563 500.351,910.7813 499.5854,910.7813 C497.5385,910.7813 496.2416,909.6875 496.2416,907.9844 L496.2416,906.8906 C496.2416,905.1094 497.4916,903.7969 499.226,903.7969 C499.8041,903.7969 500.4135,903.9531 500.8822,904.2031 C501.3666,904.4844 501.5385,904.7031 501.6322,905.1094 C501.6947,905.5156 501.726,905.6406 501.8666,905.7656 C502.0072,905.9063 502.2416,906.0156 502.4604,906.0156 C502.726,906.0156 502.9916,905.875 503.1635,905.6563 C503.2729,905.5 503.3041,905.3125 503.3041,904.8906 L503.3041,903.4688 C503.3041,903.0313 503.2885,902.9063 503.1947,902.75 C503.0385,902.4844 502.7572,902.3438 502.4604,902.3438 C502.1635,902.3438 501.9604,902.4375 501.7416,902.75 L501.5697,902.6719 Z " fill="#000000"/><text fill="#000000" font-family="sans-serif" font-size="12" lengthAdjust="spacing" textLength="69" x="519.726" y="911.1543">Transaction</text><line style="stroke:#A80036;stroke-width:1.5;" x1="435.976" x2="639.976" y1="923" y2="923"/><rect fill="none" height="6" style="stroke:#C82930;stroke-width:1.0;" width="6" x="442.976" y="931"/><text fill="#000000" font-family="sans-serif" font-size="11" lengthAdjust="spacing" textLength="47" x="454.976" y="937.2104">String id</text><rect fill="none" height="6" style="stroke:#C82930;stroke-width:1.0;" width="6" x="442.976" y="943.8047"/><text fill="#000000" font-family="sans-serif" font-size="11" lengthAdjust="spacing" textLength="86" x="454.976" y="950.0151">double amount</text><rect fill="none" height="6" style="stroke:#C82930;stroke-width:1.0;" width="6" x="442.976" y="956.6094"/><text fill="#000000" font-family="sans-serif" font-size="11" lengthAdjust="spacing" textLength="180" x="454.976" y="962.8198">LocalDateTime transactionDate</text><rect fill="none" height="6" style="stroke:#C82930;stroke-width:1.0;" width="6" x="442.976" y="969.4141"/><text fill="#000000" font-family="sans-serif" font-size="11" lengthAdjust="spacing" textLength="75" x="454.976" y="975.6245">Account from</text><rect fill="none" height="6" style="stroke:#C82930;stroke-width:1.0;" width="6" x="442.976" y="982.2188"/><text fill="#000000" font-family="sans-serif" font-size="11" lengthAdjust="spacing" textLength="97" x="454.976" y="988.4292">Account reciever</text><line style="stroke:#A80036;stroke-width:1.5;" x1="435.976" x2="639.976" y1="995.0234" y2="995.0234"/><ellipse cx="445.976" cy="1006.0234" fill="#84BE84" rx="3" ry="3" style="stroke:#038048;stroke-width:1.0;"/><text fill="#000000" font-family="sans-serif" font-size="11" lengthAdjust="spacing" textLength="73" x="454.976" y="1009.2339">Transaction()</text><ellipse cx="445.976" cy="1018.8281" fill="#84BE84" rx="3" ry="3" style="stroke:#038048;stroke-width:1.0;"/><text fill="#000000" font-family="sans-serif" font-size="11" lengthAdjust="spacing" textLength="143" x="454.976" y="1022.0386">void commitTransaction()</text><!--MD5=[c2254cc996f8eee9b09632a573720fa3]
link Bank to Account--><path codeLine="48" d="M412.976,106.103 C412.976,127.162 412.976,152.626 412.976,177.377 " fill="none" id="Bank-to-Account" style="stroke:#A80036;stroke-width:1.0;"/><polygon fill="#A80036" points="412.976,182.646,416.976,173.646,412.976,177.646,408.976,173.646,412.976,182.646" style="stroke:#A80036;stroke-width:1.0;"/><text fill="#000000" font-family="sans-serif" font-size="13" lengthAdjust="spacing" textLength="58" x="413.976" y="149.0669">accounts</text><text fill="#000000" font-family="sans-serif" font-size="13" lengthAdjust="spacing" textLength="7" x="405.708" y="171.8872">*</text><!--MD5=[87e802f94dff5db0b14b612664619da8]
link User to Account--><path codeLine="49" d="M288.32,448.771 C304.987,426.005 323.588,400.597 341.23,376.499 " fill="none" id="User-to-Account" style="stroke:#A80036;stroke-width:1.0;"/><polygon fill="#A80036" points="344.282,372.331,335.7374,377.229,341.3279,376.365,342.1918,381.9555,344.282,372.331" style="stroke:#A80036;stroke-width:1.0;"/><text fill="#000000" font-family="sans-serif" font-size="13" lengthAdjust="spacing" textLength="58" x="318.976" y="415.0669">accounts</text><text fill="#000000" font-family="sans-serif" font-size="13" lengthAdjust="spacing" textLength="7" x="331.9802" y="391.9232">*</text><!--MD5=[c6dba07d65773170d5e872f69b4e054b]
link Account to User--><path codeLine="50" d="M313.789,354.62 C299.022,369.157 285.063,385.144 273.976,402 C265.619,414.705 258.866,429.309 253.459,443.878 " fill="none" id="Account-to-User" style="stroke:#A80036;stroke-width:1.0;"/><polygon fill="#A80036" points="251.676,448.814,258.4954,441.708,253.3745,444.1113,250.9712,438.9904,251.676,448.814" style="stroke:#A80036;stroke-width:1.0;"/><text fill="#000000" font-family="sans-serif" font-size="13" lengthAdjust="spacing" textLength="28" x="274.976" y="415.0669">user</text><text fill="#000000" font-family="sans-serif" font-size="13" lengthAdjust="spacing" textLength="8" x="244.9818" y="437.9854">1</text><!--MD5=[c7177d079dea3161e4471cb338b77a85]
link Account to DataManager--><path codeLine="51" d="M313.838,293.793 C225.564,313.229 101.4588,356.2 41.9759,449 C6,505.126 6.1543,542.775 41.9759,599 C89.9597,674.315 188.383,711.145 261.724,728.736 " fill="none" id="Account-to-DataManager" style="stroke:#A80036;stroke-width:1.0;"/><polygon fill="#A80036" points="266.96,729.969,259.1176,724.011,262.0933,728.822,257.2824,731.7977,266.96,729.969" style="stroke:#A80036;stroke-width:1.0;"/><text fill="#000000" font-family="sans-serif" font-size="13" lengthAdjust="spacing" textLength="21" x="42.9759" y="528.5669">dm</text><text fill="#000000" font-family="sans-serif" font-size="13" lengthAdjust="spacing" textLength="8" x="250.9429" y="725.0515">1</text><!--MD5=[ae0b4a3cb6ed8970cb1a435d0b961d9e]
link DataManager to Account--><path codeLine="57" d="M381.217,675.809 C389.83,651.931 398.262,624.666 402.976,599 C416.449,525.639 418.558,441.277 417.508,377.525 " fill="none" id="DataManager-to-Account" style="stroke:#A80036;stroke-width:1.0;"/><polygon fill="#A80036" points="417.412,372.198,413.5747,381.2686,417.502,377.1972,421.5734,381.1245,417.412,372.198" style="stroke:#A80036;stroke-width:1.0;"/><text fill="#000000" font-family="sans-serif" font-size="13" lengthAdjust="spacing" textLength="58" x="417.976" y="528.5669">accounts</text><text fill="#000000" font-family="sans-serif" font-size="13" lengthAdjust="spacing" textLength="7" x="410.4807" y="391.7804">*</text><!--MD5=[f2ab6bd78471231fedb15daaed796f96]
link User to DataManager--><path codeLine="52" d="M258.413,599.086 C264.661,614.938 271.923,631.321 279.976,646 C284.582,654.396 289.833,662.879 295.359,671.156 " fill="none" id="User-to-DataManager" style="stroke:#A80036;stroke-width:1.0;"/><polygon fill="#A80036" points="298.455,675.731,296.7232,666.0356,295.6525,671.5902,290.0979,670.5195,298.455,675.731" style="stroke:#A80036;stroke-width:1.0;"/><text fill="#000000" font-family="sans-serif" font-size="13" lengthAdjust="spacing" textLength="21" x="280.976" y="642.0669">dm</text><text fill="#000000" font-family="sans-serif" font-size="13" lengthAdjust="spacing" textLength="8" x="284.42" y="664.9069">1</text><!--MD5=[8c4214c2b3c4d7d1a9b95678ea8ca5c8]
link DataManager to User--><path codeLine="56" d="M328.768,675.914 C322.352,660.187 314.962,643.749 306.976,629 C302.456,620.653 297.393,612.173 292.097,603.841 " fill="none" id="DataManager-to-User" style="stroke:#A80036;stroke-width:1.0;"/><polygon fill="#A80036" points="289.133,599.23,290.6338,608.9638,291.8362,603.4363,297.3638,604.6387,289.133,599.23" style="stroke:#A80036;stroke-width:1.0;"/><text fill="#000000" font-family="sans-serif" font-size="13" lengthAdjust="spacing" textLength="35" x="314.976" y="642.0669">users</text><text fill="#000000" font-family="sans-serif" font-size="13" lengthAdjust="spacing" textLength="7" x="287.218" y="619.4256">*</text><!--MD5=[c0775e90ecf450aece7883497afacbed]
link Transaction to DataManager--><path codeLine="53" d="M487.257,890.751 C475.059,875.109 461.831,858.75 448.976,844 C441.445,835.359 433.353,826.504 425.177,817.82 " fill="none" id="Transaction-to-DataManager" style="stroke:#A80036;stroke-width:1.0;"/><polygon fill="#A80036" points="421.669,814.11,424.9449,823.3981,425.1038,817.7434,430.7584,817.9023,421.669,814.11" style="stroke:#A80036;stroke-width:1.0;"/><text fill="#000000" font-family="sans-serif" font-size="13" lengthAdjust="spacing" textLength="21" x="461.976" y="857.0669">dm</text><text fill="#000000" font-family="sans-serif" font-size="13" lengthAdjust="spacing" textLength="8" x="420.0372" y="833.7428">1</text><!--MD5=[f888e8207f8ef94e8d427ab2a8406dd6]
link DataManager to Transaction--><path codeLine="58" d="M346.149,814.253 C347.383,830.564 351.259,847.224 359.976,861 C376.559,887.207 402.744,906.972 429.981,921.629 " fill="none" id="DataManager-to-Transaction" style="stroke:#A80036;stroke-width:1.0;"/><polygon fill="#A80036" points="434.717,924.122,428.6157,916.3906,430.2924,921.7933,424.8897,923.47,434.717,924.122" style="stroke:#A80036;stroke-width:1.0;"/><text fill="#000000" font-family="sans-serif" font-size="13" lengthAdjust="spacing" textLength="79" x="360.976" y="857.0669">transactions</text><text fill="#000000" font-family="sans-serif" font-size="13" lengthAdjust="spacing" textLength="7" x="419.8769" y="918.0217">*</text><!--MD5=[6bd399dd209ecb8775ea4fbe013b111a]
link Account to Transaction--><path codeLine="54" d="M458.457,372.36 C468.673,396.817 478.417,423.481 484.976,449 C524.035,600.978 534.433,785.467 537.121,885.637 " fill="none" id="Account-to-Transaction" style="stroke:#A80036;stroke-width:1.0;"/><polygon fill="#A80036" points="537.251,890.638,541.0157,881.537,537.121,885.6397,533.0184,881.745,537.251,890.638" style="stroke:#A80036;stroke-width:1.0;"/><text fill="#000000" font-family="sans-serif" font-size="13" lengthAdjust="spacing" textLength="79" x="520.976" y="642.0669">transactions</text><text fill="#000000" font-family="sans-serif" font-size="13" lengthAdjust="spacing" textLength="7" x="529.8153" y="879.8043">*</text><!--MD5=[f458711a0cc66de269bb50d813ddc482]
link Transaction to Account--><path codeLine="55" d="M570.04,890.686 C597.284,823.912 629.03,719.394 608.976,629 C588.475,536.59 534.59,443.614 488.499,376.665 " fill="none" id="Transaction-to-Account" style="stroke:#A80036;stroke-width:1.0;"/><polygon fill="#A80036" points="485.474,372.293,487.3071,381.9698,488.3196,376.4043,493.8851,377.4168,485.474,372.293" style="stroke:#A80036;stroke-width:1.0;"/><text fill="#000000" font-family="sans-serif" font-size="13" lengthAdjust="spacing" textLength="58" x="611.976" y="642.0669">accounts</text><text fill="#000000" font-family="sans-serif" font-size="13" lengthAdjust="spacing" textLength="7" x="483.541" y="391.8824">*</text><!--MD5=[663823e1f23bf99d02afed60f5be3384]
@startuml
class Bank
Bank : -Bank bankInstance
Bank : -bank()
Bank : +Bank getInstanceBank()
Bank : +Account getAccount(int accountNumber)

class Account
Account : -int accountNumber
Account : -String name
Account : -String id
Account : -double balance
Account : -double interestRate
Account : -AccountType type
Account : -User user
Account : +Account()
Account : +void deposit(double amount)
Account : +void withdraw(double amount)
Account : ~int generateAccountNumber()

class User
User : -String id
User : -String username
User : -String email
User : -String password
User : -List accounts
User : +User()
User : +void addAccount(Account newAccount)
User : +void removeAccount(Account unwantedAccount)

class DataManager
DataManager : -String path
DataManager : -List userList
DataManager : -List accountList
DataManager : -List transactionList
DataManager : +DataManager(String path)
DataManager : +void parse()
DataManager : +void save()

class Transaction
Transaction : -String id
Transaction : -double amount
Transaction : -LocalDateTime transactionDate
Transaction : -Account from
Transaction : -Account reciever
Transaction : +Transaction()
Transaction : +void commitTransaction()

Bank - -> "*" Account : accounts
User - -> "*" Account : accounts
Account - -> "1" User : user
Account - -> "1" DataManager : dm
User - -> "1" DataManager : dm
Transaction - -> "1" DataManager : dm
Account - -> "*" Transaction : transactions
Transaction - -> "*" Account : accounts
DataManager - -> "*" User : users
DataManager - -> "*" Account : accounts
DataManager - -> "*" Transaction : transactions
@enduml

PlantUML version 1.2021.15beta8(Unknown compile time)
(GPL source distribution)
Java Runtime: Java(TM) SE Runtime Environment
JVM: Java HotSpot(TM) 64-Bit Server VM
Default Encoding: UTF-8
Language: en
Country: US
--></g></svg>