<?xml version="1.0" encoding="UTF-8" standalone="no"?><svg xmlns="http://www.w3.org/2000/svg" xmlns:xlink="http://www.w3.org/1999/xlink" contentScriptType="application/ecmascript" contentStyleType="text/css" height="866px" preserveAspectRatio="none" style="width:685px;height:866px;background:#FFFFFF;" version="1.1" viewBox="0 0 685 866" width="685px" zoomAndPan="magnify"><defs><filter height="300%" id="f1xykpt27yyt72" width="300%" x="-1" y="-1"><feGaussianBlur result="blurOut" stdDeviation="2.0"/><feColorMatrix in="blurOut" result="blurOut2" type="matrix" values="0 0 0 0 0 0 0 0 0 0 0 0 0 0 0 0 0 0 .4 0"/><feOffset dx="4.0" dy="4.0" in="blurOut2" result="blurOut3"/><feBlend in="SourceGraphic" in2="blurOut3" mode="normal"/></filter></defs><g><!--MD5=[f9a29335b499db729be669fd1bd54958]
class Account--><rect codeLine="1" fill="#FEFECE" filter="url(#f1xykpt27yyt72)" height="188.8516" id="Account" style="stroke:#A80036;stroke-width:1.5;" width="198" x="345" y="7"/><ellipse cx="415.75" cy="23" fill="#ADD1B2" rx="11" ry="11" style="stroke:#A80036;stroke-width:1.0;"/><path d="M418.0938,18.6719 C417.1563,18.2344 416.5625,18.0938 415.6875,18.0938 C413.0625,18.0938 411.0625,20.1719 411.0625,22.8906 L411.0625,24.0156 C411.0625,26.5938 413.1719,28.4844 416.0625,28.4844 C417.2813,28.4844 418.4375,28.1875 419.1875,27.6406 C419.7656,27.2344 420.0938,26.7813 420.0938,26.3906 C420.0938,25.9375 419.7031,25.5469 419.2344,25.5469 C419.0156,25.5469 418.8125,25.625 418.625,25.8125 C418.1719,26.2969 418.1719,26.2969 417.9844,26.3906 C417.5625,26.6563 416.875,26.7813 416.1094,26.7813 C414.0625,26.7813 412.7656,25.6875 412.7656,23.9844 L412.7656,22.8906 C412.7656,21.1094 414.0156,19.7969 415.75,19.7969 C416.3281,19.7969 416.9375,19.9531 417.4063,20.2031 C417.8906,20.4844 418.0625,20.7031 418.1563,21.1094 C418.2188,21.5156 418.25,21.6406 418.3906,21.7656 C418.5313,21.9063 418.7656,22.0156 418.9844,22.0156 C419.25,22.0156 419.5156,21.875 419.6875,21.6563 C419.7969,21.5 419.8281,21.3125 419.8281,20.8906 L419.8281,19.4688 C419.8281,19.0313 419.8125,18.9063 419.7188,18.75 C419.5625,18.4844 419.2813,18.3438 418.9844,18.3438 C418.6875,18.3438 418.4844,18.4375 418.2656,18.75 L418.0938,18.6719 Z " fill="#000000"/><text fill="#000000" font-family="sans-serif" font-size="12" lengthAdjust="spacing" textLength="48" x="436.25" y="27.1543">Account</text><line style="stroke:#A80036;stroke-width:1.5;" x1="346" x2="542" y1="39" y2="39"/><rect fill="none" height="6" style="stroke:#C82930;stroke-width:1.0;" width="6" x="353" y="47"/><text fill="#000000" font-family="sans-serif" font-size="11" lengthAdjust="spacing" textLength="107" x="365" y="53.2104">int accountNumber</text><rect fill="none" height="6" style="stroke:#C82930;stroke-width:1.0;" width="6" x="353" y="59.8047"/><text fill="#000000" font-family="sans-serif" font-size="11" lengthAdjust="spacing" textLength="70" x="365" y="66.0151">String name</text><rect fill="none" height="6" style="stroke:#C82930;stroke-width:1.0;" width="6" x="353" y="72.6094"/><text fill="#000000" font-family="sans-serif" font-size="11" lengthAdjust="spacing" textLength="47" x="365" y="78.8198">String id</text><rect fill="none" height="6" style="stroke:#C82930;stroke-width:1.0;" width="6" x="353" y="85.4141"/><text fill="#000000" font-family="sans-serif" font-size="11" lengthAdjust="spacing" textLength="88" x="365" y="91.6245">double balance</text><rect fill="none" height="6" style="stroke:#C82930;stroke-width:1.0;" width="6" x="353" y="98.2188"/><text fill="#000000" font-family="sans-serif" font-size="11" lengthAdjust="spacing" textLength="113" x="365" y="104.4292">double interestRate</text><rect fill="none" height="6" style="stroke:#C82930;stroke-width:1.0;" width="6" x="353" y="111.0234"/><text fill="#000000" font-family="sans-serif" font-size="11" lengthAdjust="spacing" textLength="104" x="365" y="117.2339">AccountType type</text><rect fill="none" height="6" style="stroke:#C82930;stroke-width:1.0;" width="6" x="353" y="123.8281"/><text fill="#000000" font-family="sans-serif" font-size="11" lengthAdjust="spacing" textLength="55" x="365" y="130.0386">User user</text><line style="stroke:#A80036;stroke-width:1.5;" x1="346" x2="542" y1="136.6328" y2="136.6328"/><ellipse cx="356" cy="147.6328" fill="#84BE84" rx="3" ry="3" style="stroke:#038048;stroke-width:1.0;"/><text fill="#000000" font-family="sans-serif" font-size="11" lengthAdjust="spacing" textLength="53" x="365" y="150.8433">Account()</text><ellipse cx="356" cy="160.4375" fill="#84BE84" rx="3" ry="3" style="stroke:#038048;stroke-width:1.0;"/><text fill="#000000" font-family="sans-serif" font-size="11" lengthAdjust="spacing" textLength="164" x="365" y="163.6479">void deposit(double amount)</text><ellipse cx="356" cy="173.2422" fill="#84BE84" rx="3" ry="3" style="stroke:#038048;stroke-width:1.0;"/><text fill="#000000" font-family="sans-serif" font-size="11" lengthAdjust="spacing" textLength="172" x="365" y="176.4526">void withdraw(double amount)</text><polygon fill="#4177AF" points="356,182.0469,352,188.0469,360,188.0469" style="stroke:#1963A0;stroke-width:1.0;"/><text fill="#000000" font-family="sans-serif" font-size="11" lengthAdjust="spacing" textLength="169" x="365" y="189.2573">int generateAccountNumber()</text><!--MD5=[d8c8cfd5ca149094f5b67f9f607a5ec7]
class Token--><rect codeLine="14" fill="#FEFECE" filter="url(#f1xykpt27yyt72)" height="112.0234" id="Token" style="stroke:#A80036;stroke-width:1.5;" width="180" x="46" y="513"/><ellipse cx="113.25" cy="529" fill="#ADD1B2" rx="11" ry="11" style="stroke:#A80036;stroke-width:1.0;"/><path d="M115.5938,524.6719 C114.6563,524.2344 114.0625,524.0938 113.1875,524.0938 C110.5625,524.0938 108.5625,526.1719 108.5625,528.8906 L108.5625,530.0156 C108.5625,532.5938 110.6719,534.4844 113.5625,534.4844 C114.7813,534.4844 115.9375,534.1875 116.6875,533.6406 C117.2656,533.2344 117.5938,532.7813 117.5938,532.3906 C117.5938,531.9375 117.2031,531.5469 116.7344,531.5469 C116.5156,531.5469 116.3125,531.625 116.125,531.8125 C115.6719,532.2969 115.6719,532.2969 115.4844,532.3906 C115.0625,532.6563 114.375,532.7813 113.6094,532.7813 C111.5625,532.7813 110.2656,531.6875 110.2656,529.9844 L110.2656,528.8906 C110.2656,527.1094 111.5156,525.7969 113.25,525.7969 C113.8281,525.7969 114.4375,525.9531 114.9063,526.2031 C115.3906,526.4844 115.5625,526.7031 115.6563,527.1094 C115.7188,527.5156 115.75,527.6406 115.8906,527.7656 C116.0313,527.9063 116.2656,528.0156 116.4844,528.0156 C116.75,528.0156 117.0156,527.875 117.1875,527.6563 C117.2969,527.5 117.3281,527.3125 117.3281,526.8906 L117.3281,525.4688 C117.3281,525.0313 117.3125,524.9063 117.2188,524.75 C117.0625,524.4844 116.7813,524.3438 116.4844,524.3438 C116.1875,524.3438 115.9844,524.4375 115.7656,524.75 L115.5938,524.6719 Z " fill="#000000"/><text fill="#000000" font-family="sans-serif" font-size="12" lengthAdjust="spacing" textLength="37" x="133.75" y="533.1543">Token</text><line style="stroke:#A80036;stroke-width:1.5;" x1="47" x2="225" y1="545" y2="545"/><rect fill="none" height="6" style="stroke:#C82930;stroke-width:1.0;" width="6" x="54" y="553"/><text fill="#000000" font-family="sans-serif" font-size="11" lengthAdjust="spacing" textLength="41" x="66" y="559.2104">Long id</text><rect fill="none" height="6" style="stroke:#C82930;stroke-width:1.0;" width="6" x="54" y="565.8047"/><text fill="#000000" font-family="sans-serif" font-size="11" lengthAdjust="spacing" textLength="55" x="66" y="572.0151">User user</text><rect fill="none" height="6" style="stroke:#C82930;stroke-width:1.0;" width="6" x="54" y="578.6094"/><text fill="#000000" font-family="sans-serif" font-size="11" lengthAdjust="spacing" textLength="69" x="66" y="584.8198">String token</text><line style="stroke:#A80036;stroke-width:1.5;" x1="47" x2="225" y1="591.4141" y2="591.4141"/><polygon fill="#FFFF44" points="57,597.4141,61,601.4141,57,605.4141,53,601.4141" style="stroke:#B38D22;stroke-width:1.0;"/><text fill="#000000" font-family="sans-serif" font-size="11" lengthAdjust="spacing" textLength="43" x="66" y="605.6245">Token()</text><ellipse cx="57" cy="615.2188" fill="#84BE84" rx="3" ry="3" style="stroke:#038048;stroke-width:1.0;"/><text fill="#000000" font-family="sans-serif" font-size="11" lengthAdjust="spacing" textLength="154" x="66" y="618.4292">boolean equals(Object obj)</text><!--MD5=[3fd616f346a44cd59a91eb10b19e157c]
class User--><rect codeLine="21" fill="#FEFECE" filter="url(#f1xykpt27yyt72)" height="150.4375" id="User" style="stroke:#A80036;stroke-width:1.5;" width="302" x="7" y="273"/><ellipse cx="139.25" cy="289" fill="#ADD1B2" rx="11" ry="11" style="stroke:#A80036;stroke-width:1.0;"/><path d="M141.5938,284.6719 C140.6563,284.2344 140.0625,284.0938 139.1875,284.0938 C136.5625,284.0938 134.5625,286.1719 134.5625,288.8906 L134.5625,290.0156 C134.5625,292.5938 136.6719,294.4844 139.5625,294.4844 C140.7813,294.4844 141.9375,294.1875 142.6875,293.6406 C143.2656,293.2344 143.5938,292.7813 143.5938,292.3906 C143.5938,291.9375 143.2031,291.5469 142.7344,291.5469 C142.5156,291.5469 142.3125,291.625 142.125,291.8125 C141.6719,292.2969 141.6719,292.2969 141.4844,292.3906 C141.0625,292.6563 140.375,292.7813 139.6094,292.7813 C137.5625,292.7813 136.2656,291.6875 136.2656,289.9844 L136.2656,288.8906 C136.2656,287.1094 137.5156,285.7969 139.25,285.7969 C139.8281,285.7969 140.4375,285.9531 140.9063,286.2031 C141.3906,286.4844 141.5625,286.7031 141.6563,287.1094 C141.7188,287.5156 141.75,287.6406 141.8906,287.7656 C142.0313,287.9063 142.2656,288.0156 142.4844,288.0156 C142.75,288.0156 143.0156,287.875 143.1875,287.6563 C143.2969,287.5 143.3281,287.3125 143.3281,286.8906 L143.3281,285.4688 C143.3281,285.0313 143.3125,284.9063 143.2188,284.75 C143.0625,284.4844 142.7813,284.3438 142.4844,284.3438 C142.1875,284.3438 141.9844,284.4375 141.7656,284.75 L141.5938,284.6719 Z " fill="#000000"/><text fill="#000000" font-family="sans-serif" font-size="12" lengthAdjust="spacing" textLength="29" x="159.75" y="293.1543">User</text><line style="stroke:#A80036;stroke-width:1.5;" x1="8" x2="308" y1="305" y2="305"/><rect fill="none" height="6" style="stroke:#C82930;stroke-width:1.0;" width="6" x="15" y="313"/><text fill="#000000" font-family="sans-serif" font-size="11" lengthAdjust="spacing" textLength="47" x="27" y="319.2104">String id</text><rect fill="none" height="6" style="stroke:#C82930;stroke-width:1.0;" width="6" x="15" y="325.8047"/><text fill="#000000" font-family="sans-serif" font-size="11" lengthAdjust="spacing" textLength="95" x="27" y="332.0151">String username</text><rect fill="none" height="6" style="stroke:#C82930;stroke-width:1.0;" width="6" x="15" y="338.6094"/><text fill="#000000" font-family="sans-serif" font-size="11" lengthAdjust="spacing" textLength="69" x="27" y="344.8198">String email</text><rect fill="none" height="6" style="stroke:#C82930;stroke-width:1.0;" width="6" x="15" y="351.4141"/><text fill="#000000" font-family="sans-serif" font-size="11" lengthAdjust="spacing" textLength="90" x="27" y="357.6245">String password</text><rect fill="none" height="6" style="stroke:#C82930;stroke-width:1.0;" width="6" x="15" y="364.2188"/><text fill="#000000" font-family="sans-serif" font-size="11" lengthAdjust="spacing" textLength="73" x="27" y="370.4292">List accounts</text><line style="stroke:#A80036;stroke-width:1.5;" x1="8" x2="308" y1="377.0234" y2="377.0234"/><ellipse cx="18" cy="388.0234" fill="#84BE84" rx="3" ry="3" style="stroke:#038048;stroke-width:1.0;"/><text fill="#000000" font-family="sans-serif" font-size="11" lengthAdjust="spacing" textLength="34" x="27" y="391.2339">User()</text><ellipse cx="18" cy="400.8281" fill="#84BE84" rx="3" ry="3" style="stroke:#038048;stroke-width:1.0;"/><text fill="#000000" font-family="sans-serif" font-size="11" lengthAdjust="spacing" textLength="220" x="27" y="404.0386">void addAccount(Account newAccount)</text><ellipse cx="18" cy="413.6328" fill="#84BE84" rx="3" ry="3" style="stroke:#038048;stroke-width:1.0;"/><text fill="#000000" font-family="sans-serif" font-size="11" lengthAdjust="spacing" textLength="276" x="27" y="416.8433">void removeAccount(Account unwantedAccount)</text><!--MD5=[50410012277a53ec9046333ebc973b07]
class DataManager--><rect codeLine="31" fill="#FEFECE" filter="url(#f1xykpt27yyt72)" height="137.6328" id="DataManager" style="stroke:#A80036;stroke-width:1.5;" width="172" x="298" y="500"/><ellipse cx="340.45" cy="516" fill="#ADD1B2" rx="11" ry="11" style="stroke:#A80036;stroke-width:1.0;"/><path d="M342.7938,511.6719 C341.8563,511.2344 341.2625,511.0938 340.3875,511.0938 C337.7625,511.0938 335.7625,513.1719 335.7625,515.8906 L335.7625,517.0156 C335.7625,519.5938 337.8719,521.4844 340.7625,521.4844 C341.9813,521.4844 343.1375,521.1875 343.8875,520.6406 C344.4656,520.2344 344.7938,519.7813 344.7938,519.3906 C344.7938,518.9375 344.4031,518.5469 343.9344,518.5469 C343.7156,518.5469 343.5125,518.625 343.325,518.8125 C342.8719,519.2969 342.8719,519.2969 342.6844,519.3906 C342.2625,519.6563 341.575,519.7813 340.8094,519.7813 C338.7625,519.7813 337.4656,518.6875 337.4656,516.9844 L337.4656,515.8906 C337.4656,514.1094 338.7156,512.7969 340.45,512.7969 C341.0281,512.7969 341.6375,512.9531 342.1063,513.2031 C342.5906,513.4844 342.7625,513.7031 342.8563,514.1094 C342.9188,514.5156 342.95,514.6406 343.0906,514.7656 C343.2313,514.9063 343.4656,515.0156 343.6844,515.0156 C343.95,515.0156 344.2156,514.875 344.3875,514.6563 C344.4969,514.5 344.5281,514.3125 344.5281,513.8906 L344.5281,512.4688 C344.5281,512.0313 344.5125,511.9063 344.4188,511.75 C344.2625,511.4844 343.9813,511.3438 343.6844,511.3438 C343.3875,511.3438 343.1844,511.4375 342.9656,511.75 L342.7938,511.6719 Z " fill="#000000"/><text fill="#000000" font-family="sans-serif" font-size="12" lengthAdjust="spacing" textLength="79" x="360.55" y="520.1543">DataManager</text><line style="stroke:#A80036;stroke-width:1.5;" x1="299" x2="469" y1="532" y2="532"/><rect fill="none" height="6" style="stroke:#C82930;stroke-width:1.0;" width="6" x="306" y="540"/><text fill="#000000" font-family="sans-serif" font-size="11" lengthAdjust="spacing" textLength="62" x="318" y="546.2104">String path</text><rect fill="none" height="6" style="stroke:#C82930;stroke-width:1.0;" width="6" x="306" y="552.8047"/><text fill="#000000" font-family="sans-serif" font-size="11" lengthAdjust="spacing" textLength="67" x="318" y="559.0151">List userList</text><rect fill="none" height="6" style="stroke:#C82930;stroke-width:1.0;" width="6" x="306" y="565.6094"/><text fill="#000000" font-family="sans-serif" font-size="11" lengthAdjust="spacing" textLength="86" x="318" y="571.8198">List accountList</text><rect fill="none" height="6" style="stroke:#C82930;stroke-width:1.0;" width="6" x="306" y="578.4141"/><text fill="#000000" font-family="sans-serif" font-size="11" lengthAdjust="spacing" textLength="104" x="318" y="584.6245">List transactionList</text><line style="stroke:#A80036;stroke-width:1.5;" x1="299" x2="469" y1="591.2188" y2="591.2188"/><ellipse cx="309" cy="602.2188" fill="#84BE84" rx="3" ry="3" style="stroke:#038048;stroke-width:1.0;"/><text fill="#000000" font-family="sans-serif" font-size="11" lengthAdjust="spacing" textLength="146" x="318" y="605.4292">DataManager(String path)</text><ellipse cx="309" cy="615.0234" fill="#84BE84" rx="3" ry="3" style="stroke:#038048;stroke-width:1.0;"/><text fill="#000000" font-family="sans-serif" font-size="11" lengthAdjust="spacing" textLength="68" x="318" y="618.2339">void parse()</text><ellipse cx="309" cy="627.8281" fill="#84BE84" rx="3" ry="3" style="stroke:#038048;stroke-width:1.0;"/><text fill="#000000" font-family="sans-serif" font-size="11" lengthAdjust="spacing" textLength="64" x="318" y="631.0386">void save()</text><!--MD5=[4555bb1b0911a5adf28ce6dbe60fed2e]
class Transaction--><rect codeLine="40" fill="#FEFECE" filter="url(#f1xykpt27yyt72)" height="137.6328" id="Transaction" style="stroke:#A80036;stroke-width:1.5;" width="206" x="459" y="715"/><ellipse cx="523.25" cy="731" fill="#ADD1B2" rx="11" ry="11" style="stroke:#A80036;stroke-width:1.0;"/><path d="M525.5938,726.6719 C524.6563,726.2344 524.0625,726.0938 523.1875,726.0938 C520.5625,726.0938 518.5625,728.1719 518.5625,730.8906 L518.5625,732.0156 C518.5625,734.5938 520.6719,736.4844 523.5625,736.4844 C524.7813,736.4844 525.9375,736.1875 526.6875,735.6406 C527.2656,735.2344 527.5938,734.7813 527.5938,734.3906 C527.5938,733.9375 527.2031,733.5469 526.7344,733.5469 C526.5156,733.5469 526.3125,733.625 526.125,733.8125 C525.6719,734.2969 525.6719,734.2969 525.4844,734.3906 C525.0625,734.6563 524.375,734.7813 523.6094,734.7813 C521.5625,734.7813 520.2656,733.6875 520.2656,731.9844 L520.2656,730.8906 C520.2656,729.1094 521.5156,727.7969 523.25,727.7969 C523.8281,727.7969 524.4375,727.9531 524.9063,728.2031 C525.3906,728.4844 525.5625,728.7031 525.6563,729.1094 C525.7188,729.5156 525.75,729.6406 525.8906,729.7656 C526.0313,729.9063 526.2656,730.0156 526.4844,730.0156 C526.75,730.0156 527.0156,729.875 527.1875,729.6563 C527.2969,729.5 527.3281,729.3125 527.3281,728.8906 L527.3281,727.4688 C527.3281,727.0313 527.3125,726.9063 527.2188,726.75 C527.0625,726.4844 526.7813,726.3438 526.4844,726.3438 C526.1875,726.3438 525.9844,726.4375 525.7656,726.75 L525.5938,726.6719 Z " fill="#000000"/><text fill="#000000" font-family="sans-serif" font-size="12" lengthAdjust="spacing" textLength="69" x="543.75" y="735.1543">Transaction</text><line style="stroke:#A80036;stroke-width:1.5;" x1="460" x2="664" y1="747" y2="747"/><rect fill="none" height="6" style="stroke:#C82930;stroke-width:1.0;" width="6" x="467" y="755"/><text fill="#000000" font-family="sans-serif" font-size="11" lengthAdjust="spacing" textLength="47" x="479" y="761.2104">String id</text><rect fill="none" height="6" style="stroke:#C82930;stroke-width:1.0;" width="6" x="467" y="767.8047"/><text fill="#000000" font-family="sans-serif" font-size="11" lengthAdjust="spacing" textLength="86" x="479" y="774.0151">double amount</text><rect fill="none" height="6" style="stroke:#C82930;stroke-width:1.0;" width="6" x="467" y="780.6094"/><text fill="#000000" font-family="sans-serif" font-size="11" lengthAdjust="spacing" textLength="180" x="479" y="786.8198">LocalDateTime transactionDate</text><rect fill="none" height="6" style="stroke:#C82930;stroke-width:1.0;" width="6" x="467" y="793.4141"/><text fill="#000000" font-family="sans-serif" font-size="11" lengthAdjust="spacing" textLength="75" x="479" y="799.6245">Account from</text><rect fill="none" height="6" style="stroke:#C82930;stroke-width:1.0;" width="6" x="467" y="806.2188"/><text fill="#000000" font-family="sans-serif" font-size="11" lengthAdjust="spacing" textLength="97" x="479" y="812.4292">Account reciever</text><line style="stroke:#A80036;stroke-width:1.5;" x1="460" x2="664" y1="819.0234" y2="819.0234"/><ellipse cx="470" cy="830.0234" fill="#84BE84" rx="3" ry="3" style="stroke:#038048;stroke-width:1.0;"/><text fill="#000000" font-family="sans-serif" font-size="11" lengthAdjust="spacing" textLength="73" x="479" y="833.2339">Transaction()</text><ellipse cx="470" cy="842.8281" fill="#84BE84" rx="3" ry="3" style="stroke:#038048;stroke-width:1.0;"/><text fill="#000000" font-family="sans-serif" font-size="11" lengthAdjust="spacing" textLength="143" x="479" y="846.0386">void commitTransaction()</text><!--MD5=[87e802f94dff5db0b14b612664619da8]
link User to Account--><path codeLine="49" d="M239.575,272.816 C257.072,257.205 275.548,240.944 293,226 C308.296,212.902 324.632,199.226 340.701,185.946 " fill="none" id="User-to-Account" style="stroke:#A80036;stroke-width:1.0;"/><polygon fill="#A80036" points="344.78,182.58,335.2929,185.2247,340.9241,185.763,340.3857,191.3942,344.78,182.58" style="stroke:#A80036;stroke-width:1.0;"/><text fill="#000000" font-family="sans-serif" font-size="13" lengthAdjust="spacing" textLength="58" x="294" y="239.0669">accounts</text><text fill="#000000" font-family="sans-serif" font-size="13" lengthAdjust="spacing" textLength="7" x="329.9155" y="185.2911">*</text><!--MD5=[c6dba07d65773170d5e872f69b4e054b]
link Account to User--><path codeLine="50" d="M344.88,149.064 C308.058,169.373 267.598,195.543 236,226 C223.088,238.446 211.286,253.421 200.987,268.529 " fill="none" id="Account-to-User" style="stroke:#A80036;stroke-width:1.0;"/><polygon fill="#A80036" points="198.122,272.792,206.4617,267.5527,200.9106,268.6419,199.8215,263.0909,198.122,272.792" style="stroke:#A80036;stroke-width:1.0;"/><text fill="#000000" font-family="sans-serif" font-size="13" lengthAdjust="spacing" textLength="28" x="237" y="239.0669">user</text><text fill="#000000" font-family="sans-serif" font-size="13" lengthAdjust="spacing" textLength="8" x="193.5649" y="261.9613">1</text><!--MD5=[c7177d079dea3161e4471cb338b77a85]
link Account to DataManager--><path codeLine="51" d="M455.285,196.088 C460.535,260.557 462.627,347.817 447,423 C441.942,447.336 432.579,472.599 422.589,495.088 " fill="none" id="Account-to-DataManager" style="stroke:#A80036;stroke-width:1.0;"/><polygon fill="#A80036" points="420.449,499.843,427.791,493.2783,422.5015,495.2837,420.4961,489.9943,420.449,499.843" style="stroke:#A80036;stroke-width:1.0;"/><text fill="#000000" font-family="sans-serif" font-size="13" lengthAdjust="spacing" textLength="21" x="460" y="352.5669">dm</text><text fill="#000000" font-family="sans-serif" font-size="13" lengthAdjust="spacing" textLength="8" x="415.7953" y="489.0304">1</text><!--MD5=[ae0b4a3cb6ed8970cb1a435d0b961d9e]
link DataManager to Account--><path codeLine="57" d="M375.243,499.707 C369.32,439.508 364.876,349.697 379,273 C383.392,249.149 390.97,224.316 399.436,201.221 " fill="none" id="DataManager-to-Account" style="stroke:#A80036;stroke-width:1.0;"/><polygon fill="#A80036" points="401.255,196.32,394.3729,203.3653,399.5149,201.0074,401.8728,206.1495,401.255,196.32" style="stroke:#A80036;stroke-width:1.0;"/><text fill="#000000" font-family="sans-serif" font-size="13" lengthAdjust="spacing" textLength="58" x="380" y="352.5669">accounts</text><text fill="#000000" font-family="sans-serif" font-size="13" lengthAdjust="spacing" textLength="7" x="390.8589" y="215.9113">*</text><!--MD5=[f2ab6bd78471231fedb15daaed796f96]
link User to DataManager--><path codeLine="52" d="M258.991,423.162 C270.469,432.811 281.722,442.872 292,453 C305.234,466.041 318.368,480.944 330.392,495.602 " fill="none" id="User-to-DataManager" style="stroke:#A80036;stroke-width:1.0;"/><polygon fill="#A80036" points="333.754,499.728,331.169,490.2244,330.5953,495.8521,324.9676,495.2784,333.754,499.728" style="stroke:#A80036;stroke-width:1.0;"/><text fill="#000000" font-family="sans-serif" font-size="13" lengthAdjust="spacing" textLength="21" x="306" y="466.0669">dm</text><text fill="#000000" font-family="sans-serif" font-size="13" lengthAdjust="spacing" textLength="8" x="320.1599" y="488.9036">1</text><!--MD5=[8c4214c2b3c4d7d1a9b95678ea8ca5c8]
link DataManager to User--><path codeLine="56" d="M297.72,512.615 C280.106,499.604 262.299,485.098 247,470 C233.936,457.108 221.328,442.159 209.913,427.258 " fill="none" id="DataManager-to-User" style="stroke:#A80036;stroke-width:1.0;"/><polygon fill="#A80036" points="206.726,423.058,208.9808,432.6453,209.7488,427.0408,215.3533,427.8088,206.726,423.058" style="stroke:#A80036;stroke-width:1.0;"/><text fill="#000000" font-family="sans-serif" font-size="13" lengthAdjust="spacing" textLength="35" x="248" y="466.0669">users</text><text fill="#000000" font-family="sans-serif" font-size="13" lengthAdjust="spacing" textLength="7" x="204.3899" y="443.623">*</text><!--MD5=[c0775e90ecf450aece7883497afacbed]
link Transaction to DataManager--><path codeLine="53" d="M518.316,714.85 C507.338,699.045 495.194,682.59 483,668 C475.672,659.232 467.676,650.362 459.509,641.727 " fill="none" id="Transaction-to-DataManager" style="stroke:#A80036;stroke-width:1.0;"/><polygon fill="#A80036" points="456,638.041,459.3079,647.3177,459.4473,641.6626,465.1024,641.802,456,638.041" style="stroke:#A80036;stroke-width:1.0;"/><text fill="#000000" font-family="sans-serif" font-size="13" lengthAdjust="spacing" textLength="21" x="495" y="681.0669">dm</text><text fill="#000000" font-family="sans-serif" font-size="13" lengthAdjust="spacing" textLength="8" x="454.6938" y="657.667">1</text><!--MD5=[f888e8207f8ef94e8d427ab2a8406dd6]
link DataManager to Transaction--><path codeLine="58" d="M379.42,638.223 C381.07,654.535 385.259,671.203 394,685 C408.631,708.093 430.81,726.381 454.3,740.594 " fill="none" id="DataManager-to-Transaction" style="stroke:#A80036;stroke-width:1.0;"/><polygon fill="#A80036" points="458.7,743.2,452.996,735.171,454.3984,740.6513,448.9181,742.0537,458.7,743.2" style="stroke:#A80036;stroke-width:1.0;"/><text fill="#000000" font-family="sans-serif" font-size="13" lengthAdjust="spacing" textLength="79" x="395" y="681.0669">transactions</text><text fill="#000000" font-family="sans-serif" font-size="13" lengthAdjust="spacing" textLength="7" x="443.8569" y="736.7382">*</text><!--MD5=[6bd399dd209ecb8775ea4fbe013b111a]
link Account to Transaction--><path codeLine="54" d="M475.266,196.139 C478.103,206.159 480.749,216.251 483,226 C522.465,396.965 545.445,602.278 555.642,709.538 " fill="none" id="Account-to-Transaction" style="stroke:#A80036;stroke-width:1.0;"/><polygon fill="#A80036" points="556.118,714.571,559.2542,705.2348,555.6479,709.5931,551.2896,705.9869,556.118,714.571" style="stroke:#A80036;stroke-width:1.0;"/><text fill="#000000" font-family="sans-serif" font-size="13" lengthAdjust="spacing" textLength="79" x="527" y="466.0669">transactions</text><text fill="#000000" font-family="sans-serif" font-size="13" lengthAdjust="spacing" textLength="7" x="548.1505" y="703.7304">*</text><!--MD5=[f458711a0cc66de269bb50d813ddc482]
link Transaction to Account--><path codeLine="55" d="M587.786,714.95 C609.7,647.928 634.714,542.833 615,453 C595.118,362.403 547.548,268.399 507.615,200.577 " fill="none" id="Transaction-to-Account" style="stroke:#A80036;stroke-width:1.0;"/><polygon fill="#A80036" points="504.996,196.148,506.1347,205.9308,507.5413,200.4516,513.0205,201.8583,504.996,196.148" style="stroke:#A80036;stroke-width:1.0;"/><text fill="#000000" font-family="sans-serif" font-size="13" lengthAdjust="spacing" textLength="58" x="619" y="466.0669">accounts</text><text fill="#000000" font-family="sans-serif" font-size="13" lengthAdjust="spacing" textLength="7" x="502.398" y="216.0464">*</text><!--MD5=[8c82605f4711d0cf484c57b1ff57c7fa]
link Token to User--><path codeLine="59" d="M141.528,512.976 C144.1,487.367 147.208,456.425 150.029,428.35 " fill="none" id="Token-to-User" style="stroke:#A80036;stroke-width:1.0;"/><polygon fill="#A80036" points="150.552,423.143,145.6719,431.6978,150.0519,428.1179,153.6318,432.4979,150.552,423.143" style="stroke:#A80036;stroke-width:1.0;"/><text fill="#000000" font-family="sans-serif" font-size="13" lengthAdjust="spacing" textLength="28" x="148" y="466.0669">user</text><text fill="#000000" font-family="sans-serif" font-size="13" lengthAdjust="spacing" textLength="8" x="141.3714" y="443.7167">1</text><!--MD5=[c4ec09675a95d26efab9abb1f3e98009]
link User to Token--><path codeLine="60" d="M111.635,423.275 C107.284,432.982 103.5538,443.027 101,453 C96.4099,470.925 99.1977,490.229 104.8034,507.805 " fill="none" id="User-to-Token" style="stroke:#A80036;stroke-width:1.0;"/><polygon fill="#A80036" points="106.4554,512.715,107.3768,502.9093,104.8611,507.976,99.7944,505.4603,106.4554,512.715" style="stroke:#A80036;stroke-width:1.0;"/><text fill="#000000" font-family="sans-serif" font-size="13" lengthAdjust="spacing" textLength="36" x="102" y="466.0669">token</text><text fill="#000000" font-family="sans-serif" font-size="13" lengthAdjust="spacing" textLength="8" x="94.3672" y="502.0148">1</text><!--MD5=[1a59d01d07a76b5964c13e56b47ccfc5]
@startuml
class Account
Account : -int accountNumber
Account : -String name
Account : -String id
Account : -double balance
Account : -double interestRate
Account : -AccountType type
Account : -User user
Account : +Account()
Account : +void deposit(double amount)
Account : +void withdraw(double amount)
Account : ~int generateAccountNumber()

class Token
Token : -Long id
Token : -User user
Token : -String token
Token : #Token()
Token : +boolean equals(Object obj)

class User
User : -String id
User : -String username
User : -String email
User : -String password
User : -List accounts
User : +User()
User : +void addAccount(Account newAccount)
User : +void removeAccount(Account unwantedAccount)

class DataManager
DataManager : -String path
DataManager : -List userList
DataManager : -List accountList
DataManager : -List transactionList
DataManager : +DataManager(String path)
DataManager : +void parse()
DataManager : +void save()

class Transaction
Transaction : -String id
Transaction : -double amount
Transaction : -LocalDateTime transactionDate
Transaction : -Account from
Transaction : -Account reciever
Transaction : +Transaction()
Transaction : +void commitTransaction()

User - -> "*" Account : accounts
Account - -> "1" User : user
Account - -> "1" DataManager : dm
User - -> "1" DataManager : dm
Transaction - -> "1" DataManager : dm
Account - -> "*" Transaction : transactions
Transaction - -> "*" Account : accounts
DataManager - -> "*" User : users
DataManager - -> "*" Account : accounts
DataManager - -> "*" Transaction : transactions
Token - -> "1" User : user
User - -> "1" Token : token
@enduml

PlantUML version 1.2021.15beta8(Unknown compile time)
(GPL source distribution)
Java Runtime: Java(TM) SE Runtime Environment
JVM: Java HotSpot(TM) 64-Bit Server VM
Default Encoding: UTF-8
Language: en
Country: US
--></g></svg>