<?xml version="1.0" encoding="UTF-8" standalone="no"?><svg xmlns="http://www.w3.org/2000/svg" xmlns:xlink="http://www.w3.org/1999/xlink" contentScriptType="application/ecmascript" contentStyleType="text/css" height="431px" preserveAspectRatio="none" style="width:901px;height:431px;background:#FFFFFF;" version="1.1" viewBox="0 0 901 431" width="901px" zoomAndPan="magnify"><defs/><g><rect fill="#FEFECE" height="60.8906" rx="5" ry="5" style="stroke:#FEFECE;stroke-width:1.5;" width="121" x="10" y="181"/><text fill="#000000" font-family="sans-serif" font-size="14" lengthAdjust="spacing" textLength="37" x="15" y="195.9951">users</text><text fill="#000000" font-family="sans-serif" font-size="14" lengthAdjust="spacing" textLength="0" x="126" y="195.9951"/><line style="stroke:#A80036;stroke-width:1.0;" x1="109" x2="109" y1="181" y2="201.2969"/><line style="stroke:#A80036;stroke-width:1.0;" x1="10" x2="131" y1="201.2969" y2="201.2969"/><text fill="#000000" font-family="sans-serif" font-size="14" lengthAdjust="spacing" textLength="64" x="15" y="216.292">accounts</text><text fill="#000000" font-family="sans-serif" font-size="14" lengthAdjust="spacing" textLength="0" x="126" y="216.292"/><line style="stroke:#A80036;stroke-width:1.0;" x1="109" x2="109" y1="201.2969" y2="221.5938"/><line style="stroke:#A80036;stroke-width:1.0;" x1="10" x2="131" y1="221.5938" y2="221.5938"/><text fill="#000000" font-family="sans-serif" font-size="14" lengthAdjust="spacing" textLength="89" x="15" y="236.5889">transactions</text><text fill="#000000" font-family="sans-serif" font-size="14" lengthAdjust="spacing" textLength="0" x="126" y="236.5889"/><line style="stroke:#A80036;stroke-width:1.0;" x1="109" x2="109" y1="221.5938" y2="241.8906"/><rect fill="none" height="60.8906" rx="5" ry="5" style="stroke:#A80036;stroke-width:1.5;" width="121" x="10" y="181"/><rect fill="#FEFECE" height="20.2969" rx="5" ry="5" style="stroke:#FEFECE;stroke-width:1.5;" width="22" x="168" y="106.5"/><text fill="#000000" font-family="sans-serif" font-size="14" lengthAdjust="spacing" textLength="0" x="185" y="121.4951"/><rect fill="none" height="20.2969" rx="5" ry="5" style="stroke:#A80036;stroke-width:1.5;" width="22" x="168" y="106.5"/><rect fill="#FEFECE" height="101.4844" rx="5" ry="5" style="stroke:#FEFECE;stroke-width:1.5;" width="218" x="243" y="10"/><text fill="#000000" font-family="sans-serif" font-size="14" lengthAdjust="spacing" textLength="13" x="248" y="24.9951">id</text><text fill="#000000" font-family="sans-serif" font-size="14" lengthAdjust="spacing" textLength="13" x="328" y="24.9951">id</text><line style="stroke:#A80036;stroke-width:1.0;" x1="323" x2="323" y1="10" y2="30.2969"/><line style="stroke:#A80036;stroke-width:1.0;" x1="243" x2="461" y1="30.2969" y2="30.2969"/><text fill="#000000" font-family="sans-serif" font-size="14" lengthAdjust="spacing" textLength="70" x="248" y="45.292">username</text><text fill="#000000" font-family="sans-serif" font-size="14" lengthAdjust="spacing" textLength="70" x="328" y="45.292">username</text><line style="stroke:#A80036;stroke-width:1.0;" x1="323" x2="323" y1="30.2969" y2="50.5938"/><line style="stroke:#A80036;stroke-width:1.0;" x1="243" x2="461" y1="50.5938" y2="50.5938"/><text fill="#000000" font-family="sans-serif" font-size="14" lengthAdjust="spacing" textLength="39" x="248" y="65.5889">email</text><text fill="#000000" font-family="sans-serif" font-size="14" lengthAdjust="spacing" textLength="128" x="328" y="65.5889">email@email.com</text><line style="stroke:#A80036;stroke-width:1.0;" x1="323" x2="323" y1="50.5938" y2="70.8906"/><line style="stroke:#A80036;stroke-width:1.0;" x1="243" x2="461" y1="70.8906" y2="70.8906"/><text fill="#000000" font-family="sans-serif" font-size="14" lengthAdjust="spacing" textLength="67" x="248" y="85.8857">password</text><text fill="#000000" font-family="sans-serif" font-size="14" lengthAdjust="spacing" textLength="67" x="328" y="85.8857">password</text><line style="stroke:#A80036;stroke-width:1.0;" x1="323" x2="323" y1="70.8906" y2="91.1875"/><line style="stroke:#A80036;stroke-width:1.0;" x1="243" x2="461" y1="91.1875" y2="91.1875"/><text fill="#000000" font-family="sans-serif" font-size="14" lengthAdjust="spacing" textLength="64" x="248" y="106.1826">accounts</text><text fill="#000000" font-family="sans-serif" font-size="14" lengthAdjust="spacing" textLength="0" x="340" y="106.1826"/><line style="stroke:#A80036;stroke-width:1.0;" x1="323" x2="323" y1="91.1875" y2="111.4844"/><rect fill="none" height="101.4844" rx="5" ry="5" style="stroke:#A80036;stroke-width:1.5;" width="218" x="243" y="10"/><rect fill="#FEFECE" height="20.2969" rx="5" ry="5" style="stroke:#FEFECE;stroke-width:1.5;" width="22" x="594.5" y="90.5"/><text fill="#000000" font-family="sans-serif" font-size="14" lengthAdjust="spacing" textLength="0" x="611.5" y="105.4951"/><rect fill="none" height="20.2969" rx="5" ry="5" style="stroke:#A80036;stroke-width:1.5;" width="22" x="594.5" y="90.5"/><rect fill="#FEFECE" height="20.2969" rx="5" ry="5" style="stroke:#FEFECE;stroke-width:1.5;" width="126" x="750.5" y="90.5"/><text fill="#000000" font-family="sans-serif" font-size="14" lengthAdjust="spacing" textLength="13" x="755.5" y="105.4951">id</text><text fill="#000000" font-family="sans-serif" font-size="14" lengthAdjust="spacing" textLength="93" x="778.5" y="105.4951">id of account</text><line style="stroke:#A80036;stroke-width:1.0;" x1="773.5" x2="773.5" y1="90.5" y2="110.7969"/><rect fill="none" height="20.2969" rx="5" ry="5" style="stroke:#A80036;stroke-width:1.5;" width="126" x="750.5" y="90.5"/><rect fill="#FEFECE" height="20.2969" rx="5" ry="5" style="stroke:#FEFECE;stroke-width:1.5;" width="22" x="168" y="200.5"/><text fill="#000000" font-family="sans-serif" font-size="14" lengthAdjust="spacing" textLength="0" x="185" y="215.4951"/><rect fill="none" height="20.2969" rx="5" ry="5" style="stroke:#A80036;stroke-width:1.5;" width="22" x="168" y="200.5"/><rect fill="#FEFECE" height="162.375" rx="5" ry="5" style="stroke:#FEFECE;stroke-width:1.5;" width="224" x="240" y="129.5"/><text fill="#000000" font-family="sans-serif" font-size="14" lengthAdjust="spacing" textLength="13" x="245" y="144.4951">id</text><text fill="#000000" font-family="sans-serif" font-size="14" lengthAdjust="spacing" textLength="13" x="419" y="144.4951">id</text><line style="stroke:#A80036;stroke-width:1.0;" x1="414" x2="414" y1="129.5" y2="149.7969"/><line style="stroke:#A80036;stroke-width:1.0;" x1="240" x2="464" y1="149.7969" y2="149.7969"/><text fill="#000000" font-family="sans-serif" font-size="14" lengthAdjust="spacing" textLength="114" x="245" y="164.792">accountNumber</text><text fill="#000000" font-family="sans-serif" font-size="14" lengthAdjust="spacing" textLength="36" x="419" y="164.792">1000</text><line style="stroke:#A80036;stroke-width:1.0;" x1="414" x2="414" y1="149.7969" y2="170.0938"/><line style="stroke:#A80036;stroke-width:1.0;" x1="240" x2="464" y1="170.0938" y2="170.0938"/><text fill="#000000" font-family="sans-serif" font-size="14" lengthAdjust="spacing" textLength="40" x="245" y="185.0889">name</text><text fill="#000000" font-family="sans-serif" font-size="14" lengthAdjust="spacing" textLength="40" x="419" y="185.0889">name</text><line style="stroke:#A80036;stroke-width:1.0;" x1="414" x2="414" y1="170.0938" y2="190.3906"/><line style="stroke:#A80036;stroke-width:1.0;" x1="240" x2="464" y1="190.3906" y2="190.3906"/><text fill="#000000" font-family="sans-serif" font-size="14" lengthAdjust="spacing" textLength="56" x="245" y="205.3857">balance</text><text fill="#000000" font-family="sans-serif" font-size="14" lengthAdjust="spacing" textLength="27" x="419" y="205.3857">100</text><line style="stroke:#A80036;stroke-width:1.0;" x1="414" x2="414" y1="190.3906" y2="210.6875"/><line style="stroke:#A80036;stroke-width:1.0;" x1="240" x2="464" y1="210.6875" y2="210.6875"/><text fill="#000000" font-family="sans-serif" font-size="14" lengthAdjust="spacing" textLength="92" x="245" y="225.6826">interestRate</text><text fill="#000000" font-family="sans-serif" font-size="14" lengthAdjust="spacing" textLength="23" x="419" y="225.6826">5.0</text><line style="stroke:#A80036;stroke-width:1.0;" x1="414" x2="414" y1="210.6875" y2="230.9844"/><line style="stroke:#A80036;stroke-width:1.0;" x1="240" x2="464" y1="230.9844" y2="230.9844"/><text fill="#000000" font-family="sans-serif" font-size="14" lengthAdjust="spacing" textLength="34" x="245" y="245.9795">type</text><text fill="#000000" font-family="sans-serif" font-size="14" lengthAdjust="spacing" textLength="34" x="419" y="245.9795">type</text><line style="stroke:#A80036;stroke-width:1.0;" x1="414" x2="414" y1="230.9844" y2="251.2813"/><line style="stroke:#A80036;stroke-width:1.0;" x1="240" x2="464" y1="251.2813" y2="251.2813"/><text fill="#000000" font-family="sans-serif" font-size="14" lengthAdjust="spacing" textLength="164" x="245" y="266.2764">numberOfTransactions</text><text fill="#000000" font-family="sans-serif" font-size="14" lengthAdjust="spacing" textLength="9" x="419" y="266.2764">1</text><line style="stroke:#A80036;stroke-width:1.0;" x1="414" x2="414" y1="251.2813" y2="271.5781"/><line style="stroke:#A80036;stroke-width:1.0;" x1="240" x2="464" y1="271.5781" y2="271.5781"/><text fill="#000000" font-family="sans-serif" font-size="14" lengthAdjust="spacing" textLength="89" x="245" y="286.5732">transactions</text><text fill="#000000" font-family="sans-serif" font-size="14" lengthAdjust="spacing" textLength="0" x="431" y="286.5732"/><line style="stroke:#A80036;stroke-width:1.0;" x1="414" x2="414" y1="271.5781" y2="291.875"/><rect fill="none" height="162.375" rx="5" ry="5" style="stroke:#A80036;stroke-width:1.5;" width="224" x="240" y="129.5"/><rect fill="#FEFECE" height="20.2969" rx="5" ry="5" style="stroke:#FEFECE;stroke-width:1.5;" width="22" x="594.5" y="271.5"/><text fill="#000000" font-family="sans-serif" font-size="14" lengthAdjust="spacing" textLength="0" x="611.5" y="286.4951"/><rect fill="none" height="20.2969" rx="5" ry="5" style="stroke:#A80036;stroke-width:1.5;" width="22" x="594.5" y="271.5"/><rect fill="#FEFECE" height="20.2969" rx="5" ry="5" style="stroke:#FEFECE;stroke-width:1.5;" width="151" x="738" y="271.5"/><text fill="#000000" font-family="sans-serif" font-size="14" lengthAdjust="spacing" textLength="13" x="743" y="286.4951">id</text><text fill="#000000" font-family="sans-serif" font-size="14" lengthAdjust="spacing" textLength="118" x="766" y="286.4951">id of transaction</text><line style="stroke:#A80036;stroke-width:1.0;" x1="761" x2="761" y1="271.5" y2="291.7969"/><rect fill="none" height="20.2969" rx="5" ry="5" style="stroke:#A80036;stroke-width:1.5;" width="151" x="738" y="271.5"/><rect fill="#FEFECE" height="20.2969" rx="5" ry="5" style="stroke:#FEFECE;stroke-width:1.5;" width="22" x="168" y="294.5"/><text fill="#000000" font-family="sans-serif" font-size="14" lengthAdjust="spacing" textLength="0" x="185" y="309.4951"/><rect fill="none" height="20.2969" rx="5" ry="5" style="stroke:#A80036;stroke-width:1.5;" width="22" x="168" y="294.5"/><rect fill="#FEFECE" height="101.4844" rx="5" ry="5" style="stroke:#FEFECE;stroke-width:1.5;" width="246" x="229" y="310"/><text fill="#000000" font-family="sans-serif" font-size="14" lengthAdjust="spacing" textLength="13" x="234" y="324.9951">id</text><text fill="#000000" font-family="sans-serif" font-size="14" lengthAdjust="spacing" textLength="13" x="321" y="324.9951">id</text><line style="stroke:#A80036;stroke-width:1.0;" x1="316" x2="316" y1="310" y2="330.2969"/><line style="stroke:#A80036;stroke-width:1.0;" x1="229" x2="475" y1="330.2969" y2="330.2969"/><text fill="#000000" font-family="sans-serif" font-size="14" lengthAdjust="spacing" textLength="55" x="234" y="345.292">amount</text><text fill="#000000" font-family="sans-serif" font-size="14" lengthAdjust="spacing" textLength="18" x="321" y="345.292">50</text><line style="stroke:#A80036;stroke-width:1.0;" x1="316" x2="316" y1="330.2969" y2="350.5938"/><line style="stroke:#A80036;stroke-width:1.0;" x1="229" x2="475" y1="350.5938" y2="350.5938"/><text fill="#000000" font-family="sans-serif" font-size="14" lengthAdjust="spacing" textLength="77" x="234" y="365.5889">dateString</text><text fill="#000000" font-family="sans-serif" font-size="14" lengthAdjust="spacing" textLength="149" x="321" y="365.5889">30-09-2021 12:00:00</text><line style="stroke:#A80036;stroke-width:1.0;" x1="316" x2="316" y1="350.5938" y2="370.8906"/><line style="stroke:#A80036;stroke-width:1.0;" x1="229" x2="475" y1="370.8906" y2="370.8906"/><text fill="#000000" font-family="sans-serif" font-size="14" lengthAdjust="spacing" textLength="35" x="234" y="385.8857">from</text><text fill="#000000" font-family="sans-serif" font-size="14" lengthAdjust="spacing" textLength="0" x="333" y="385.8857"/><line style="stroke:#A80036;stroke-width:1.0;" x1="316" x2="316" y1="370.8906" y2="391.1875"/><line style="stroke:#A80036;stroke-width:1.0;" x1="229" x2="475" y1="391.1875" y2="391.1875"/><text fill="#000000" font-family="sans-serif" font-size="14" lengthAdjust="spacing" textLength="59" x="234" y="406.1826">reciever</text><text fill="#000000" font-family="sans-serif" font-size="14" lengthAdjust="spacing" textLength="0" x="333" y="406.1826"/><line style="stroke:#A80036;stroke-width:1.0;" x1="316" x2="316" y1="391.1875" y2="411.4844"/><rect fill="none" height="101.4844" rx="5" ry="5" style="stroke:#A80036;stroke-width:1.5;" width="246" x="229" y="310"/><rect fill="#FEFECE" height="20.2969" rx="5" ry="5" style="stroke:#FEFECE;stroke-width:1.5;" width="179" x="517" y="361.5"/><text fill="#000000" font-family="sans-serif" font-size="14" lengthAdjust="spacing" textLength="13" x="522" y="376.4951">id</text><text fill="#000000" font-family="sans-serif" font-size="14" lengthAdjust="spacing" textLength="146" x="545" y="376.4951">id of sender account</text><line style="stroke:#A80036;stroke-width:1.0;" x1="540" x2="540" y1="361.5" y2="381.7969"/><rect fill="none" height="20.2969" rx="5" ry="5" style="stroke:#A80036;stroke-width:1.5;" width="179" x="517" y="361.5"/><rect fill="#FEFECE" height="20.2969" rx="5" ry="5" style="stroke:#FEFECE;stroke-width:1.5;" width="189" x="512" y="399.5"/><text fill="#000000" font-family="sans-serif" font-size="14" lengthAdjust="spacing" textLength="13" x="517" y="414.4951">id</text><text fill="#000000" font-family="sans-serif" font-size="14" lengthAdjust="spacing" textLength="156" x="540" y="414.4951">id of reciever account</text><line style="stroke:#A80036;stroke-width:1.0;" x1="535" x2="535" y1="399.5" y2="419.7969"/><rect fill="none" height="20.2969" rx="5" ry="5" style="stroke:#A80036;stroke-width:1.5;" width="189" x="512" y="399.5"/><path d="M606.2693,100.5 L619.2693,100.5 C643.2602,100.5 697.9894,100.5 743.179,100.5 " fill="none" style="stroke:#A80036;stroke-width:1.0;stroke-dasharray:3.0,3.0;"/><path d="M743.179,103.5957 L745.5008,100.5 L743.179,97.4043 L750.9182,100.5 L743.179,103.5957 " fill="#A80036" style="stroke:#A80036;stroke-width:1.0;"/><ellipse cx="606.2693" cy="100.5" fill="#A80036" rx="3" ry="3" style="stroke:#A80036;stroke-width:1.0;"/><path d="M449.5,100.5 L462.5,100.5 C507.2036,100.5 559.7407,100.5 587.167,100.5 " fill="none" style="stroke:#A80036;stroke-width:1.0;stroke-dasharray:3.0,3.0;"/><path d="M587.167,103.5676 L589.4677,100.5 L587.167,97.4324 L594.836,100.5 L587.167,103.5676 " fill="#A80036" style="stroke:#A80036;stroke-width:1.0;"/><ellipse cx="449.5" cy="100.5" fill="#A80036" rx="3" ry="3" style="stroke:#A80036;stroke-width:1.0;"/><path d="M180.17,116.6081 L192.5244,112.5622 C202.7256,109.2214 218.4994,104.0557 236.2242,98.2511 " fill="none" style="stroke:#A80036;stroke-width:1.0;stroke-dasharray:3.0,3.0;"/><path d="M237.1612,101.1124 L238.3701,97.5484 L235.2872,95.3899 L243.3774,95.9086 L237.1612,101.1124 " fill="#A80036" style="stroke:#A80036;stroke-width:1.0;"/><ellipse cx="180.17" cy="116.6081" fill="#A80036" rx="3" ry="3" style="stroke:#A80036;stroke-width:1.0;"/><path d="M121,192.5 L121,179.5 C121,155.3389 144.3903,136.5436 161.5904,125.9886 " fill="none" style="stroke:#A80036;stroke-width:1.0;stroke-dasharray:3.0,3.0;"/><path d="M163.1946,128.7511 L163.6622,124.7854 L159.9861,123.2261 L168.4966,121.978 L163.1946,128.7511 " fill="#A80036" style="stroke:#A80036;stroke-width:1.0;"/><ellipse cx="121" cy="192.5" fill="#A80036" rx="3" ry="3" style="stroke:#A80036;stroke-width:1.0;"/><path d="M606.2693,281.5 L619.2693,281.5 C641.0862,281.5 688.3227,281.5 730.6887,281.5 " fill="none" style="stroke:#A80036;stroke-width:1.0;stroke-dasharray:3.0,3.0;"/><path d="M730.6887,284.5288 L732.9603,281.5 L730.6887,278.4712 L738.2606,281.5 L730.6887,284.5288 " fill="#A80036" style="stroke:#A80036;stroke-width:1.0;"/><ellipse cx="606.2693" cy="281.5" fill="#A80036" rx="3" ry="3" style="stroke:#A80036;stroke-width:1.0;"/><path d="M452.5,281.5 L465.5,281.5 C509.048,281.5 560.1884,281.5 587.152,281.5 " fill="none" style="stroke:#A80036;stroke-width:1.0;stroke-dasharray:3.0,3.0;"/><path d="M587.152,284.5227 L589.419,281.5 L587.152,278.4773 L594.7087,281.5 L587.152,284.5227 " fill="#A80036" style="stroke:#A80036;stroke-width:1.0;"/><ellipse cx="452.5" cy="281.5" fill="#A80036" rx="3" ry="3" style="stroke:#A80036;stroke-width:1.0;"/><path d="M179.5244,210.5 L192.5244,210.5 C202.0176,210.5 216.3369,210.5 232.5633,210.5 " fill="none" style="stroke:#A80036;stroke-width:1.0;stroke-dasharray:3.0,3.0;"/><path d="M232.5633,213.5316 L234.8371,210.5 L232.5633,207.4684 L240.1424,210.5 L232.5633,213.5316 " fill="#A80036" style="stroke:#A80036;stroke-width:1.0;"/><ellipse cx="179.5244" cy="210.5" fill="#A80036" rx="3" ry="3" style="stroke:#A80036;stroke-width:1.0;"/><path d="M119,210.5 L132,210.5 C141.374,210.5 151.7885,210.5 160.4714,210.5 " fill="none" style="stroke:#A80036;stroke-width:1.0;stroke-dasharray:3.0,3.0;"/><path d="M160.4714,213.5815 L162.7825,210.5 L160.4714,207.4185 L168.1751,210.5 L160.4714,213.5815 " fill="#A80036" style="stroke:#A80036;stroke-width:1.0;"/><ellipse cx="119" cy="210.5" fill="#A80036" rx="3" ry="3" style="stroke:#A80036;stroke-width:1.0;"/><path d="M463,380.5 L476,380.5 C486.8451,380.5 498.187,380.1844 509.4594,379.6714 " fill="none" style="stroke:#A80036;stroke-width:1.0;stroke-dasharray:3.0,3.0;"/><path d="M509.6135,382.7858 L511.7952,379.5559 L509.3053,376.5571 L517.2453,379.2862 L509.6135,382.7858 " fill="#A80036" style="stroke:#A80036;stroke-width:1.0;"/><ellipse cx="463" cy="380.5" fill="#A80036" rx="3" ry="3" style="stroke:#A80036;stroke-width:1.0;"/><path d="M463,400.5 L476,400.5 C485.2827,400.5 494.9293,400.7312 504.5848,401.1195 " fill="none" style="stroke:#A80036;stroke-width:1.0;stroke-dasharray:3.0,3.0;"/><path d="M504.4474,404.2149 L506.9064,401.2226 L504.7223,398.024 L512.3234,401.4632 L504.4474,404.2149 " fill="#A80036" style="stroke:#A80036;stroke-width:1.0;"/><ellipse cx="463" cy="400.5" fill="#A80036" rx="3" ry="3" style="stroke:#A80036;stroke-width:1.0;"/><path d="M180.17,304.3919 L192.5244,308.4378 C199.8961,310.852 210.1779,314.2191 222.0031,318.0917 " fill="none" style="stroke:#A80036;stroke-width:1.0;stroke-dasharray:3.0,3.0;"/><path d="M221.069,320.9439 L224.1422,318.7922 L222.9371,315.2395 L229.1336,320.4268 L221.069,320.9439 " fill="#A80036" style="stroke:#A80036;stroke-width:1.0;"/><ellipse cx="180.17" cy="304.3919" fill="#A80036" rx="3" ry="3" style="stroke:#A80036;stroke-width:1.0;"/><path d="M121,230.5 L121,243.5 C121,267.2523 144.3903,285.3561 161.5904,295.4579 " fill="none" style="stroke:#A80036;stroke-width:1.0;stroke-dasharray:3.0,3.0;"/><path d="M160.0574,298.2204 L163.6622,296.6076 L163.1234,292.6954 L168.4966,299.2904 L160.0574,298.2204 " fill="#A80036" style="stroke:#A80036;stroke-width:1.0;"/><ellipse cx="121" cy="230.5" fill="#A80036" rx="3" ry="3" style="stroke:#A80036;stroke-width:1.0;"/><!--MD5=[554c35d0aa8444b4b5c4c22afb588807]
@startjson
{

"users": [{
  "id": "id",
  "username": "username",
  "email": "email@email.com",
  "password": "password",
  "accounts" : [{"id": "id of account"}]

}],

"accounts": [{
  "id": "id",
  "accountNumber": "1000",
  "name": "name",
  "balance" : "100",
  "interestRate": "5.0",
  "type": "type",
  "numberOfTransactions": "1",
  "transactions" : [{"id": "id of transaction"}]

}],

"transactions": [{
  "id": "id",
  "amount": "50",
  "dateString": "30-09-2021 12:00:00",
  "from" : {"id": "id of sender account"},
  "reciever": {"id": "id of reciever account"}

}]

}
@endjson

PlantUML version 1.2021.11beta7(Unknown compile time)
(GPL source distribution)
Java Runtime: Java(TM) SE Runtime Environment
JVM: Java HotSpot(TM) 64-Bit Server VM
Default Encoding: UTF-8
Language: en
Country: US
--></g></svg>