<?xml version="1.0" encoding="UTF-8" standalone="no"?><svg xmlns="http://www.w3.org/2000/svg" xmlns:xlink="http://www.w3.org/1999/xlink" contentScriptType="application/ecmascript" contentStyleType="text/css" height="692px" preserveAspectRatio="none" style="width:1360px;height:692px;background:#FFFFFF;" version="1.1" viewBox="0 0 1360 692" width="1360px" zoomAndPan="magnify"><defs><filter height="300%" id="fzsv903j09vl0" width="300%" x="-1" y="-1"><feGaussianBlur result="blurOut" stdDeviation="2.0"/><feColorMatrix in="blurOut" result="blurOut2" type="matrix" values="0 0 0 0 0 0 0 0 0 0 0 0 0 0 0 0 0 0 .4 0"/><feOffset dx="4.0" dy="4.0" in="blurOut2" result="blurOut3"/><feBlend in="SourceGraphic" in2="blurOut3" mode="normal"/></filter></defs><g><rect fill="#ADD8E6" filter="url(#fzsv903j09vl0)" height="398.3359" style="stroke:#000000;stroke-width:2.0;" width="1336.5" x="10" y="192.6953"/><rect fill="#90EE90" filter="url(#fzsv903j09vl0)" height="177.6016" style="stroke:#000000;stroke-width:2.0;" width="1316.5" x="20" y="333.3594"/><rect fill="#FFC0CB" height="73.0703" style="stroke:none;stroke-width:1.0;" width="1316.5" x="20" y="437.8906"/><rect fill="#FFC0CB" height="73.0703" style="stroke:none;stroke-width:1.0;" width="1336.5" x="10" y="517.9609"/><line style="stroke:#A80036;stroke-width:1.0;stroke-dasharray:5.0,5.0;" x1="48" x2="48" y1="88.2969" y2="608.0313"/><line style="stroke:#A80036;stroke-width:1.0;stroke-dasharray:5.0,5.0;" x1="202.5" x2="202.5" y1="88.2969" y2="608.0313"/><line style="stroke:#A80036;stroke-width:1.0;stroke-dasharray:5.0,5.0;" x1="406.5" x2="406.5" y1="88.2969" y2="608.0313"/><line style="stroke:#A80036;stroke-width:1.0;stroke-dasharray:5.0,5.0;" x1="621.5" x2="621.5" y1="88.2969" y2="608.0313"/><line style="stroke:#A80036;stroke-width:1.0;stroke-dasharray:5.0,5.0;" x1="833.5" x2="833.5" y1="88.2969" y2="608.0313"/><line style="stroke:#A80036;stroke-width:1.0;stroke-dasharray:5.0,5.0;" x1="1018.5" x2="1018.5" y1="88.2969" y2="608.0313"/><line style="stroke:#A80036;stroke-width:1.0;stroke-dasharray:5.0,5.0;" x1="1217.5" x2="1217.5" y1="88.2969" y2="608.0313"/><text fill="#000000" font-family="sans-serif" font-size="14" lengthAdjust="spacing" textLength="31" x="30" y="84.9951">User</text><ellipse cx="48.5" cy="15" fill="#FEFECE" filter="url(#fzsv903j09vl0)" rx="8" ry="8" style="stroke:#A80036;stroke-width:2.0;"/><path d="M48.5,23 L48.5,50 M35.5,31 L61.5,31 M48.5,50 L35.5,65 M48.5,50 L61.5,65 " fill="none" filter="url(#fzsv903j09vl0)" style="stroke:#A80036;stroke-width:2.0;"/><text fill="#000000" font-family="sans-serif" font-size="14" lengthAdjust="spacing" textLength="31" x="30" y="620.0264">User</text><ellipse cx="48.5" cy="633.3281" fill="#FEFECE" filter="url(#fzsv903j09vl0)" rx="8" ry="8" style="stroke:#A80036;stroke-width:2.0;"/><path d="M48.5,641.3281 L48.5,668.3281 M35.5,649.3281 L61.5,649.3281 M48.5,668.3281 L35.5,683.3281 M48.5,668.3281 L61.5,683.3281 " fill="none" filter="url(#fzsv903j09vl0)" style="stroke:#A80036;stroke-width:2.0;"/><rect fill="#FEFECE" filter="url(#fzsv903j09vl0)" height="30.2969" style="stroke:#A80036;stroke-width:1.5;" width="186" x="107.5" y="53"/><text fill="#000000" font-family="sans-serif" font-size="14" lengthAdjust="spacing" textLength="172" x="114.5" y="72.9951">VueCreateAccountForm</text><rect fill="#FEFECE" filter="url(#fzsv903j09vl0)" height="30.2969" style="stroke:#A80036;stroke-width:1.5;" width="186" x="107.5" y="607.0313"/><text fill="#000000" font-family="sans-serif" font-size="14" lengthAdjust="spacing" textLength="172" x="114.5" y="627.0264">VueCreateAccountForm</text><rect fill="#FEFECE" filter="url(#fzsv903j09vl0)" height="30.2969" style="stroke:#A80036;stroke-width:1.5;" width="194" x="307.5" y="53"/><text fill="#000000" font-family="sans-serif" font-size="14" lengthAdjust="spacing" textLength="180" x="314.5" y="72.9951">VueStoreAccountActions</text><rect fill="#FEFECE" filter="url(#fzsv903j09vl0)" height="30.2969" style="stroke:#A80036;stroke-width:1.5;" width="194" x="307.5" y="607.0313"/><text fill="#000000" font-family="sans-serif" font-size="14" lengthAdjust="spacing" textLength="180" x="314.5" y="627.0264">VueStoreAccountActions</text><rect fill="#FEFECE" filter="url(#fzsv903j09vl0)" height="30.2969" style="stroke:#A80036;stroke-width:1.5;" width="208" x="515.5" y="53"/><text fill="#000000" font-family="sans-serif" font-size="14" lengthAdjust="spacing" textLength="194" x="522.5" y="72.9951">BackendAccountController</text><rect fill="#FEFECE" filter="url(#fzsv903j09vl0)" height="30.2969" style="stroke:#A80036;stroke-width:1.5;" width="208" x="515.5" y="607.0313"/><text fill="#000000" font-family="sans-serif" font-size="14" lengthAdjust="spacing" textLength="194" x="522.5" y="627.0264">BackendAccountController</text><rect fill="#FEFECE" filter="url(#fzsv903j09vl0)" height="30.2969" style="stroke:#A80036;stroke-width:1.5;" width="188" x="737.5" y="53"/><text fill="#000000" font-family="sans-serif" font-size="14" lengthAdjust="spacing" textLength="174" x="744.5" y="72.9951">BackendAccountService</text><rect fill="#FEFECE" filter="url(#fzsv903j09vl0)" height="30.2969" style="stroke:#A80036;stroke-width:1.5;" width="188" x="737.5" y="607.0313"/><text fill="#000000" font-family="sans-serif" font-size="14" lengthAdjust="spacing" textLength="174" x="744.5" y="627.0264">BackendAccountService</text><rect fill="#FEFECE" filter="url(#fzsv903j09vl0)" height="30.2969" style="stroke:#A80036;stroke-width:1.5;" width="155" x="939.5" y="53"/><text fill="#000000" font-family="sans-serif" font-size="14" lengthAdjust="spacing" textLength="141" x="946.5" y="72.9951">APIAccountRequest</text><rect fill="#FEFECE" filter="url(#fzsv903j09vl0)" height="30.2969" style="stroke:#A80036;stroke-width:1.5;" width="155" x="939.5" y="607.0313"/><text fill="#000000" font-family="sans-serif" font-size="14" lengthAdjust="spacing" textLength="141" x="946.5" y="627.0264">APIAccountRequest</text><rect fill="#FEFECE" filter="url(#fzsv903j09vl0)" height="30.2969" style="stroke:#A80036;stroke-width:1.5;" width="214" x="1108.5" y="53"/><text fill="#000000" font-family="sans-serif" font-size="14" lengthAdjust="spacing" textLength="200" x="1115.5" y="72.9951">BackendAccountRepository</text><rect fill="#FEFECE" filter="url(#fzsv903j09vl0)" height="30.2969" style="stroke:#A80036;stroke-width:1.5;" width="214" x="1108.5" y="607.0313"/><text fill="#000000" font-family="sans-serif" font-size="14" lengthAdjust="spacing" textLength="200" x="1115.5" y="627.0264">BackendAccountRepository</text><polygon fill="#A80036" points="190.5,115.4297,200.5,119.4297,190.5,123.4297,194.5,119.4297" style="stroke:#A80036;stroke-width:1.0;"/><line style="stroke:#A80036;stroke-width:1.0;" x1="48.5" x2="196.5" y1="119.4297" y2="119.4297"/><text fill="#000000" font-family="sans-serif" font-size="13" lengthAdjust="spacing" textLength="130" x="55.5" y="114.3638">click "Opprett konto"</text><polygon fill="#A80036" points="394.5,144.5625,404.5,148.5625,394.5,152.5625,398.5,148.5625" style="stroke:#A80036;stroke-width:1.0;"/><line style="stroke:#A80036;stroke-width:1.0;" x1="202.5" x2="400.5" y1="148.5625" y2="148.5625"/><text fill="#000000" font-family="sans-serif" font-size="13" lengthAdjust="spacing" textLength="158" x="209.5" y="143.4966">createAccountWrapper()</text><polygon fill="#A80036" points="609.5,173.6953,619.5,177.6953,609.5,181.6953,613.5,177.6953" style="stroke:#A80036;stroke-width:1.0;"/><line style="stroke:#A80036;stroke-width:1.0;" x1="406.5" x2="615.5" y1="177.6953" y2="177.6953"/><text fill="#000000" font-family="sans-serif" font-size="13" lengthAdjust="spacing" textLength="103" x="413.5" y="172.6294">createAccount()</text><path d="M10,192.6953 L76,192.6953 L76,199.6953 L66,209.6953 L10,209.6953 L10,192.6953 " fill="#FFFFFF" style="stroke:#000000;stroke-width:1.0;"/><rect fill="none" height="398.3359" style="stroke:#000000;stroke-width:2.0;" width="1336.5" x="10" y="192.6953"/><text fill="#000000" font-family="sans-serif" font-size="13" font-weight="bold" lengthAdjust="spacing" textLength="21" x="25" y="205.7622">alt</text><text fill="#000000" font-family="sans-serif" font-size="11" font-weight="bold" lengthAdjust="spacing" textLength="98" x="91" y="204.9058">[if authorized]</text><polygon fill="#A80036" points="821.5,226.9609,831.5,230.9609,821.5,234.9609,825.5,230.9609" style="stroke:#A80036;stroke-width:1.0;"/><line style="stroke:#A80036;stroke-width:1.0;" x1="621.5" x2="827.5" y1="230.9609" y2="230.9609"/><text fill="#000000" font-family="sans-serif" font-size="13" lengthAdjust="spacing" textLength="103" x="628.5" y="225.895">createAccount()</text><polygon fill="#A80036" points="1007,256.0938,1017,260.0938,1007,264.0938,1011,260.0938" style="stroke:#A80036;stroke-width:1.0;"/><line style="stroke:#A80036;stroke-width:1.0;" x1="833.5" x2="1013" y1="260.0938" y2="260.0938"/><text fill="#000000" font-family="sans-serif" font-size="13" lengthAdjust="spacing" textLength="92" x="840.5" y="255.0278">buildAccount()</text><polygon fill="#A80036" points="844.5,285.2266,834.5,289.2266,844.5,293.2266,840.5,289.2266" style="stroke:#A80036;stroke-width:1.0;"/><line style="stroke:#A80036;stroke-width:1.0;stroke-dasharray:2.0,2.0;" x1="838.5" x2="1018" y1="289.2266" y2="289.2266"/><text fill="#000000" font-family="sans-serif" font-size="13" lengthAdjust="spacing" textLength="94" x="850.5" y="284.1606">return account</text><polygon fill="#A80036" points="632.5,314.3594,622.5,318.3594,632.5,322.3594,628.5,318.3594" style="stroke:#A80036;stroke-width:1.0;"/><line style="stroke:#A80036;stroke-width:1.0;stroke-dasharray:2.0,2.0;" x1="626.5" x2="832.5" y1="318.3594" y2="318.3594"/><text fill="#000000" font-family="sans-serif" font-size="13" lengthAdjust="spacing" textLength="94" x="638.5" y="313.2935">return account</text><path d="M20,333.3594 L86,333.3594 L86,340.3594 L76,350.3594 L20,350.3594 L20,333.3594 " fill="#FFD700" style="stroke:#000000;stroke-width:1.0;"/><rect fill="none" height="177.6016" style="stroke:#000000;stroke-width:2.0;" width="1316.5" x="20" y="333.3594"/><text fill="#000000" font-family="sans-serif" font-size="13" font-weight="bold" lengthAdjust="spacing" textLength="21" x="35" y="346.4263">alt</text><text fill="#000000" font-family="sans-serif" font-size="11" font-weight="bold" lengthAdjust="spacing" textLength="129" x="101" y="345.5698">[if account is valid]</text><polygon fill="#A80036" points="1205.5,367.625,1215.5,371.625,1205.5,375.625,1209.5,371.625" style="stroke:#A80036;stroke-width:1.0;"/><line style="stroke:#A80036;stroke-width:1.0;" x1="621.5" x2="1211.5" y1="371.625" y2="371.625"/><text fill="#000000" font-family="sans-serif" font-size="13" lengthAdjust="spacing" textLength="41" x="628.5" y="366.5591">save()</text><polygon fill="#A80036" points="417.5,396.7578,407.5,400.7578,417.5,404.7578,413.5,400.7578" style="stroke:#A80036;stroke-width:1.0;"/><line style="stroke:#A80036;stroke-width:1.0;stroke-dasharray:2.0,2.0;" x1="411.5" x2="620.5" y1="400.7578" y2="400.7578"/><text fill="#000000" font-family="sans-serif" font-size="13" lengthAdjust="spacing" textLength="158" x="423.5" y="395.6919">return AccountResponse</text><polygon fill="#A80036" points="59.5,425.8906,49.5,429.8906,59.5,433.8906,55.5,429.8906" style="stroke:#A80036;stroke-width:1.0;"/><line style="stroke:#A80036;stroke-width:1.0;stroke-dasharray:2.0,2.0;" x1="53.5" x2="405.5" y1="429.8906" y2="429.8906"/><text fill="#000000" font-family="sans-serif" font-size="13" lengthAdjust="spacing" textLength="51" x="65.5" y="424.8247">success</text><line style="stroke:#000000;stroke-width:1.0;stroke-dasharray:2.0,2.0;" x1="20" x2="1336.5" y1="438.8906" y2="438.8906"/><text fill="#000000" font-family="sans-serif" font-size="11" font-weight="bold" lengthAdjust="spacing" textLength="69" x="25" y="449.1011">[not valid]</text><polygon fill="#A80036" points="417.5,469.8281,407.5,473.8281,417.5,477.8281,413.5,473.8281" style="stroke:#A80036;stroke-width:1.0;"/><line style="stroke:#A80036;stroke-width:1.0;stroke-dasharray:2.0,2.0;" x1="411.5" x2="620.5" y1="473.8281" y2="473.8281"/><text fill="#000000" font-family="sans-serif" font-size="13" lengthAdjust="spacing" textLength="154" x="423.5" y="468.7622">HttpStatus:Bad Request</text><polygon fill="#A80036" points="59.5,498.9609,49.5,502.9609,59.5,506.9609,55.5,502.9609" style="stroke:#A80036;stroke-width:1.0;"/><line style="stroke:#A80036;stroke-width:1.0;stroke-dasharray:2.0,2.0;" x1="53.5" x2="405.5" y1="502.9609" y2="502.9609"/><text fill="#000000" font-family="sans-serif" font-size="13" lengthAdjust="spacing" textLength="31" x="65.5" y="497.895">error</text><line style="stroke:#000000;stroke-width:1.0;stroke-dasharray:2.0,2.0;" x1="10" x2="1346.5" y1="518.9609" y2="518.9609"/><text fill="#000000" font-family="sans-serif" font-size="11" font-weight="bold" lengthAdjust="spacing" textLength="111" x="15" y="529.1714">[not authorized]</text><polygon fill="#A80036" points="417.5,549.8984,407.5,553.8984,417.5,557.8984,413.5,553.8984" style="stroke:#A80036;stroke-width:1.0;"/><line style="stroke:#A80036;stroke-width:1.0;stroke-dasharray:2.0,2.0;" x1="411.5" x2="620.5" y1="553.8984" y2="553.8984"/><text fill="#000000" font-family="sans-serif" font-size="13" lengthAdjust="spacing" textLength="136" x="423.5" y="548.8325">HttpStatus:Forbidden</text><polygon fill="#A80036" points="59.5,579.0313,49.5,583.0313,59.5,587.0313,55.5,583.0313" style="stroke:#A80036;stroke-width:1.0;"/><line style="stroke:#A80036;stroke-width:1.0;stroke-dasharray:2.0,2.0;" x1="53.5" x2="405.5" y1="583.0313" y2="583.0313"/><text fill="#000000" font-family="sans-serif" font-size="13" lengthAdjust="spacing" textLength="31" x="65.5" y="577.9653">error</text><!--MD5=[5146ee84f9d7d17351b8148f7ae4a330]
@startuml
actor User as user
participant VueCreateAccountForm as cav
user -> cav : click "Opprett konto"
participant VueStoreAccountActions as vsaa
cav -> vsaa : createAccountWrapper()
participant BackendAccountController as bac
vsaa -> bac : createAccount()
alt#White #LightBlue if authorized
participant BackendAccountService as accountservice
bac -> accountservice : createAccount()
participant APIAccountRequest as accountrequest
accountservice -> accountrequest : buildAccount()
accountrequest - -> accountservice : return account
accountservice - -> bac : return account
alt#Gold #LightGreen if account is valid
participant BackendAccountRepository as accountrepository
bac -> accountrepository : save()
bac - -> vsaa : return AccountResponse
vsaa - -> user : success
else #Pink not valid
bac - -> vsaa : HttpStatus:Bad Request
vsaa - -> user : error
end
else #Pink not authorized
bac - -> vsaa : HttpStatus:Forbidden
vsaa - -> user : error
end
@enduml

PlantUML version 1.2021.15beta5(Unknown compile time)
(GPL source distribution)
Java Runtime: Java(TM) SE Runtime Environment
JVM: Java HotSpot(TM) 64-Bit Server VM
Default Encoding: UTF-8
Language: en
Country: US
--></g></svg>