<?xml version="1.0" encoding="UTF-8" standalone="no"?><svg xmlns="http://www.w3.org/2000/svg" xmlns:xlink="http://www.w3.org/1999/xlink" contentScriptType="application/ecmascript" contentStyleType="text/css" height="362px" preserveAspectRatio="none" style="width:1028px;height:362px;background:#FFFFFF;" version="1.1" viewBox="0 0 1028 362" width="1028px" zoomAndPan="magnify"><defs><filter height="300%" id="f15erl1pbph7zu" width="300%" x="-1" y="-1"><feGaussianBlur result="blurOut" stdDeviation="2.0"/><feColorMatrix in="blurOut" result="blurOut2" type="matrix" values="0 0 0 0 0 0 0 0 0 0 0 0 0 0 0 0 0 0 .4 0"/><feOffset dx="4.0" dy="4.0" in="blurOut2" result="blurOut3"/><feBlend in="SourceGraphic" in2="blurOut3" mode="normal"/></filter></defs><g><!--MD5=[744e2c9ecd8ce86097909e545888816b]
class UserSerializer--><rect codeLine="2" fill="#FEFECE" filter="url(#f15erl1pbph7zu)" height="61.8359" id="UserSerializer" style="stroke:#A80036;stroke-width:1.5;" width="121" x="676.5" y="7"/><ellipse cx="696.45" cy="23" fill="#ADD1B2" rx="11" ry="11" style="stroke:#A80036;stroke-width:1.0;"/><path d="M699.2156,18.875 Q699.3719,18.6563 699.5594,18.5469 Q699.7469,18.4375 699.9656,18.4375 Q700.3406,18.4375 700.575,18.7031 Q700.8094,18.9531 700.8094,19.5625 L700.8094,21.0156 Q700.8094,21.625 700.575,21.8906 Q700.3406,22.1563 699.9656,22.1563 Q699.6219,22.1563 699.4188,21.9531 Q699.2156,21.7656 699.1063,21.25 Q699.0594,20.8906 698.8719,20.7031 Q698.5438,20.3281 697.9344,20.1094 Q697.325,19.8906 696.7,19.8906 Q695.9344,19.8906 695.2938,20.2188 Q694.6688,20.5469 694.1688,21.2969 Q693.6844,22.0469 693.6844,23.0781 L693.6844,24.1719 Q693.6844,25.4063 694.575,26.2344 Q695.4656,27.0469 697.0594,27.0469 Q697.9969,27.0469 698.6531,26.7969 Q699.0438,26.6406 699.4656,26.2031 Q699.7313,25.9375 699.8719,25.8594 Q700.0281,25.7813 700.2313,25.7813 Q700.5594,25.7813 700.8094,26.0469 Q701.075,26.2969 701.075,26.6406 Q701.075,26.9844 700.7313,27.3906 Q700.2313,27.9688 699.4344,28.2969 Q698.3563,28.75 697.0594,28.75 Q695.5438,28.75 694.3406,28.125 Q693.3563,27.625 692.6688,26.5625 Q691.9813,25.4844 691.9813,24.2031 L691.9813,23.0469 Q691.9813,21.7188 692.5906,20.5781 Q693.2156,19.4219 694.3094,18.8125 Q695.4031,18.1875 696.6375,18.1875 Q697.3719,18.1875 698.0125,18.3594 Q698.6688,18.5156 699.2156,18.875 Z " fill="#000000"/><text fill="#000000" font-family="sans-serif" font-size="12" lengthAdjust="spacing" textLength="78" x="711.55" y="27.9102">UserSerializer</text><line style="stroke:#A80036;stroke-width:1.5;" x1="677.5" x2="796.5" y1="39" y2="39"/><line style="stroke:#A80036;stroke-width:1.5;" x1="677.5" x2="796.5" y1="47" y2="47"/><ellipse cx="687.5" cy="58" fill="#84BE84" rx="3" ry="3" style="stroke:#038048;stroke-width:1.0;"/><text fill="#000000" font-family="sans-serif" font-size="11" lengthAdjust="spacing" textLength="95" x="696.5" y="62.4189">void Serialize(User)</text><!--MD5=[1f1c4caeb6a7aefc34ce296f189e7bd7]
class AccountSerializer--><rect codeLine="6" fill="#FEFECE" filter="url(#f15erl1pbph7zu)" height="61.8359" id="AccountSerializer" style="stroke:#A80036;stroke-width:1.5;" width="139" x="675.5" y="147"/><ellipse cx="696.35" cy="163" fill="#ADD1B2" rx="11" ry="11" style="stroke:#A80036;stroke-width:1.0;"/><path d="M699.1156,158.875 Q699.2719,158.6563 699.4594,158.5469 Q699.6469,158.4375 699.8656,158.4375 Q700.2406,158.4375 700.475,158.7031 Q700.7094,158.9531 700.7094,159.5625 L700.7094,161.0156 Q700.7094,161.625 700.475,161.8906 Q700.2406,162.1563 699.8656,162.1563 Q699.5219,162.1563 699.3188,161.9531 Q699.1156,161.7656 699.0063,161.25 Q698.9594,160.8906 698.7719,160.7031 Q698.4438,160.3281 697.8344,160.1094 Q697.225,159.8906 696.6,159.8906 Q695.8344,159.8906 695.1938,160.2188 Q694.5688,160.5469 694.0688,161.2969 Q693.5844,162.0469 693.5844,163.0781 L693.5844,164.1719 Q693.5844,165.4063 694.475,166.2344 Q695.3656,167.0469 696.9594,167.0469 Q697.8969,167.0469 698.5531,166.7969 Q698.9438,166.6406 699.3656,166.2031 Q699.6313,165.9375 699.7719,165.8594 Q699.9281,165.7813 700.1313,165.7813 Q700.4594,165.7813 700.7094,166.0469 Q700.975,166.2969 700.975,166.6406 Q700.975,166.9844 700.6313,167.3906 Q700.1313,167.9688 699.3344,168.2969 Q698.2563,168.75 696.9594,168.75 Q695.4438,168.75 694.2406,168.125 Q693.2563,167.625 692.5688,166.5625 Q691.8813,165.4844 691.8813,164.2031 L691.8813,163.0469 Q691.8813,161.7188 692.4906,160.5781 Q693.1156,159.4219 694.2094,158.8125 Q695.3031,158.1875 696.5375,158.1875 Q697.2719,158.1875 697.9125,158.3594 Q698.5688,158.5156 699.1156,158.875 Z " fill="#000000"/><text fill="#000000" font-family="sans-serif" font-size="12" lengthAdjust="spacing" textLength="94" x="711.65" y="167.9102">AccountSerializer</text><line style="stroke:#A80036;stroke-width:1.5;" x1="676.5" x2="813.5" y1="179" y2="179"/><line style="stroke:#A80036;stroke-width:1.5;" x1="676.5" x2="813.5" y1="187" y2="187"/><ellipse cx="686.5" cy="198" fill="#84BE84" rx="3" ry="3" style="stroke:#038048;stroke-width:1.0;"/><text fill="#000000" font-family="sans-serif" font-size="11" lengthAdjust="spacing" textLength="113" x="695.5" y="202.4189">void Serialize(Account)</text><!--MD5=[f06ccc1c8b38a0194844313458767eea]
class TransactionSerializer--><rect codeLine="10" fill="#FEFECE" filter="url(#f15erl1pbph7zu)" height="61.8359" id="TransactionSerializer" style="stroke:#A80036;stroke-width:1.5;" width="155" x="671.5" y="287"/><ellipse cx="689.65" cy="303" fill="#ADD1B2" rx="11" ry="11" style="stroke:#A80036;stroke-width:1.0;"/><path d="M692.4156,298.875 Q692.5719,298.6563 692.7594,298.5469 Q692.9469,298.4375 693.1656,298.4375 Q693.5406,298.4375 693.775,298.7031 Q694.0094,298.9531 694.0094,299.5625 L694.0094,301.0156 Q694.0094,301.625 693.775,301.8906 Q693.5406,302.1563 693.1656,302.1563 Q692.8219,302.1563 692.6188,301.9531 Q692.4156,301.7656 692.3063,301.25 Q692.2594,300.8906 692.0719,300.7031 Q691.7438,300.3281 691.1344,300.1094 Q690.525,299.8906 689.9,299.8906 Q689.1344,299.8906 688.4938,300.2188 Q687.8688,300.5469 687.3688,301.2969 Q686.8844,302.0469 686.8844,303.0781 L686.8844,304.1719 Q686.8844,305.4063 687.775,306.2344 Q688.6656,307.0469 690.2594,307.0469 Q691.1969,307.0469 691.8531,306.7969 Q692.2438,306.6406 692.6656,306.2031 Q692.9313,305.9375 693.0719,305.8594 Q693.2281,305.7813 693.4313,305.7813 Q693.7594,305.7813 694.0094,306.0469 Q694.275,306.2969 694.275,306.6406 Q694.275,306.9844 693.9313,307.3906 Q693.4313,307.9688 692.6344,308.2969 Q691.5563,308.75 690.2594,308.75 Q688.7438,308.75 687.5406,308.125 Q686.5563,307.625 685.8688,306.5625 Q685.1813,305.4844 685.1813,304.2031 L685.1813,303.0469 Q685.1813,301.7188 685.7906,300.5781 Q686.4156,299.4219 687.5094,298.8125 Q688.6031,298.1875 689.8375,298.1875 Q690.5719,298.1875 691.2125,298.3594 Q691.8688,298.5156 692.4156,298.875 Z " fill="#000000"/><text fill="#000000" font-family="sans-serif" font-size="12" lengthAdjust="spacing" textLength="116" x="704.35" y="307.9102">TransactionSerializer</text><line style="stroke:#A80036;stroke-width:1.5;" x1="672.5" x2="825.5" y1="319" y2="319"/><line style="stroke:#A80036;stroke-width:1.5;" x1="672.5" x2="825.5" y1="327" y2="327"/><ellipse cx="682.5" cy="338" fill="#84BE84" rx="3" ry="3" style="stroke:#038048;stroke-width:1.0;"/><text fill="#000000" font-family="sans-serif" font-size="11" lengthAdjust="spacing" textLength="129" x="691.5" y="342.4189">void Serialize(Transaction)</text><!--MD5=[3f5443be66cbea33f5dc2ea911f0e65b]
class ArrayUserSerializer--><rect codeLine="16" fill="#FEFECE" filter="url(#f15erl1pbph7zu)" height="61.8359" id="ArrayUserSerializer" style="stroke:#A80036;stroke-width:1.5;" width="171" x="386.5" y="7"/><ellipse cx="416.8" cy="23" fill="#ADD1B2" rx="11" ry="11" style="stroke:#A80036;stroke-width:1.0;"/><path d="M419.5656,18.875 Q419.7219,18.6563 419.9094,18.5469 Q420.0969,18.4375 420.3156,18.4375 Q420.6906,18.4375 420.925,18.7031 Q421.1594,18.9531 421.1594,19.5625 L421.1594,21.0156 Q421.1594,21.625 420.925,21.8906 Q420.6906,22.1563 420.3156,22.1563 Q419.9719,22.1563 419.7688,21.9531 Q419.5656,21.7656 419.4563,21.25 Q419.4094,20.8906 419.2219,20.7031 Q418.8938,20.3281 418.2844,20.1094 Q417.675,19.8906 417.05,19.8906 Q416.2844,19.8906 415.6438,20.2188 Q415.0188,20.5469 414.5188,21.2969 Q414.0344,22.0469 414.0344,23.0781 L414.0344,24.1719 Q414.0344,25.4063 414.925,26.2344 Q415.8156,27.0469 417.4094,27.0469 Q418.3469,27.0469 419.0031,26.7969 Q419.3938,26.6406 419.8156,26.2031 Q420.0813,25.9375 420.2219,25.8594 Q420.3781,25.7813 420.5813,25.7813 Q420.9094,25.7813 421.1594,26.0469 Q421.425,26.2969 421.425,26.6406 Q421.425,26.9844 421.0813,27.3906 Q420.5813,27.9688 419.7844,28.2969 Q418.7063,28.75 417.4094,28.75 Q415.8938,28.75 414.6906,28.125 Q413.7063,27.625 413.0188,26.5625 Q412.3313,25.4844 412.3313,24.2031 L412.3313,23.0469 Q412.3313,21.7188 412.9406,20.5781 Q413.5656,19.4219 414.6594,18.8125 Q415.7531,18.1875 416.9875,18.1875 Q417.7219,18.1875 418.3625,18.3594 Q419.0188,18.5156 419.5656,18.875 Z " fill="#000000"/><text fill="#000000" font-family="sans-serif" font-size="12" lengthAdjust="spacing" textLength="105" x="434.2" y="27.9102">ArrayUserSerializer</text><line style="stroke:#A80036;stroke-width:1.5;" x1="387.5" x2="556.5" y1="39" y2="39"/><line style="stroke:#A80036;stroke-width:1.5;" x1="387.5" x2="556.5" y1="47" y2="47"/><ellipse cx="397.5" cy="58" fill="#84BE84" rx="3" ry="3" style="stroke:#038048;stroke-width:1.0;"/><text fill="#000000" font-family="sans-serif" font-size="11" lengthAdjust="spacing" textLength="145" x="406.5" y="62.4189">void Serialize(Array of Users)</text><!--MD5=[d1457525d5ade259934314144689201a]
class ArrayAccountSerializer--><rect codeLine="20" fill="#FEFECE" filter="url(#f15erl1pbph7zu)" height="61.8359" id="ArrayAccountSerializer" style="stroke:#A80036;stroke-width:1.5;" width="189" x="368.5" y="147"/><ellipse cx="399.7" cy="163" fill="#ADD1B2" rx="11" ry="11" style="stroke:#A80036;stroke-width:1.0;"/><path d="M402.4656,158.875 Q402.6219,158.6563 402.8094,158.5469 Q402.9969,158.4375 403.2156,158.4375 Q403.5906,158.4375 403.825,158.7031 Q404.0594,158.9531 404.0594,159.5625 L404.0594,161.0156 Q404.0594,161.625 403.825,161.8906 Q403.5906,162.1563 403.2156,162.1563 Q402.8719,162.1563 402.6688,161.9531 Q402.4656,161.7656 402.3563,161.25 Q402.3094,160.8906 402.1219,160.7031 Q401.7938,160.3281 401.1844,160.1094 Q400.575,159.8906 399.95,159.8906 Q399.1844,159.8906 398.5438,160.2188 Q397.9188,160.5469 397.4188,161.2969 Q396.9344,162.0469 396.9344,163.0781 L396.9344,164.1719 Q396.9344,165.4063 397.825,166.2344 Q398.7156,167.0469 400.3094,167.0469 Q401.2469,167.0469 401.9031,166.7969 Q402.2938,166.6406 402.7156,166.2031 Q402.9813,165.9375 403.1219,165.8594 Q403.2781,165.7813 403.4813,165.7813 Q403.8094,165.7813 404.0594,166.0469 Q404.325,166.2969 404.325,166.6406 Q404.325,166.9844 403.9813,167.3906 Q403.4813,167.9688 402.6844,168.2969 Q401.6063,168.75 400.3094,168.75 Q398.7938,168.75 397.5906,168.125 Q396.6063,167.625 395.9188,166.5625 Q395.2313,165.4844 395.2313,164.2031 L395.2313,163.0469 Q395.2313,161.7188 395.8406,160.5781 Q396.4656,159.4219 397.5594,158.8125 Q398.6531,158.1875 399.8875,158.1875 Q400.6219,158.1875 401.2625,158.3594 Q401.9188,158.5156 402.4656,158.875 Z " fill="#000000"/><text fill="#000000" font-family="sans-serif" font-size="12" lengthAdjust="spacing" textLength="121" x="417.3" y="167.9102">ArrayAccountSerializer</text><line style="stroke:#A80036;stroke-width:1.5;" x1="369.5" x2="556.5" y1="179" y2="179"/><line style="stroke:#A80036;stroke-width:1.5;" x1="369.5" x2="556.5" y1="187" y2="187"/><ellipse cx="379.5" cy="198" fill="#84BE84" rx="3" ry="3" style="stroke:#038048;stroke-width:1.0;"/><text fill="#000000" font-family="sans-serif" font-size="11" lengthAdjust="spacing" textLength="163" x="388.5" y="202.4189">void Serialize(Array of Accounts)</text><!--MD5=[8940e486e226ba4e4defebc4ffb33bb8]
class ArrayTransactionSerializer--><rect codeLine="24" fill="#FEFECE" filter="url(#f15erl1pbph7zu)" height="61.8359" id="ArrayTransactionSerializer" style="stroke:#A80036;stroke-width:1.5;" width="199" x="358.5" y="287"/><ellipse cx="384.3" cy="303" fill="#ADD1B2" rx="11" ry="11" style="stroke:#A80036;stroke-width:1.0;"/><path d="M387.0656,298.875 Q387.2219,298.6563 387.4094,298.5469 Q387.5969,298.4375 387.8156,298.4375 Q388.1906,298.4375 388.425,298.7031 Q388.6594,298.9531 388.6594,299.5625 L388.6594,301.0156 Q388.6594,301.625 388.425,301.8906 Q388.1906,302.1563 387.8156,302.1563 Q387.4719,302.1563 387.2688,301.9531 Q387.0656,301.7656 386.9563,301.25 Q386.9094,300.8906 386.7219,300.7031 Q386.3938,300.3281 385.7844,300.1094 Q385.175,299.8906 384.55,299.8906 Q383.7844,299.8906 383.1438,300.2188 Q382.5188,300.5469 382.0188,301.2969 Q381.5344,302.0469 381.5344,303.0781 L381.5344,304.1719 Q381.5344,305.4063 382.425,306.2344 Q383.3156,307.0469 384.9094,307.0469 Q385.8469,307.0469 386.5031,306.7969 Q386.8938,306.6406 387.3156,306.2031 Q387.5813,305.9375 387.7219,305.8594 Q387.8781,305.7813 388.0813,305.7813 Q388.4094,305.7813 388.6594,306.0469 Q388.925,306.2969 388.925,306.6406 Q388.925,306.9844 388.5813,307.3906 Q388.0813,307.9688 387.2844,308.2969 Q386.2063,308.75 384.9094,308.75 Q383.3938,308.75 382.1906,308.125 Q381.2063,307.625 380.5188,306.5625 Q379.8313,305.4844 379.8313,304.2031 L379.8313,303.0469 Q379.8313,301.7188 380.4406,300.5781 Q381.0656,299.4219 382.1594,298.8125 Q383.2531,298.1875 384.4875,298.1875 Q385.2219,298.1875 385.8625,298.3594 Q386.5188,298.5156 387.0656,298.875 Z " fill="#000000"/><text fill="#000000" font-family="sans-serif" font-size="12" lengthAdjust="spacing" textLength="143" x="400.7" y="307.9102">ArrayTransactionSerializer</text><line style="stroke:#A80036;stroke-width:1.5;" x1="359.5" x2="556.5" y1="319" y2="319"/><line style="stroke:#A80036;stroke-width:1.5;" x1="359.5" x2="556.5" y1="327" y2="327"/><ellipse cx="369.5" cy="338" fill="#84BE84" rx="3" ry="3" style="stroke:#038048;stroke-width:1.0;"/><text fill="#000000" font-family="sans-serif" font-size="11" lengthAdjust="spacing" textLength="173" x="378.5" y="342.4189">void Serialize(Array of Transations)</text><!--MD5=[50410012277a53ec9046333ebc973b07]
class DataManager--><rect codeLine="30" fill="#FEFECE" filter="url(#f15erl1pbph7zu)" height="61.8359" id="DataManager" style="stroke:#A80036;stroke-width:1.5;" width="106" x="7" y="7"/><ellipse cx="22" cy="23" fill="#ADD1B2" rx="11" ry="11" style="stroke:#A80036;stroke-width:1.0;"/><path d="M24.7656,18.875 Q24.9219,18.6563 25.1094,18.5469 Q25.2969,18.4375 25.5156,18.4375 Q25.8906,18.4375 26.125,18.7031 Q26.3594,18.9531 26.3594,19.5625 L26.3594,21.0156 Q26.3594,21.625 26.125,21.8906 Q25.8906,22.1563 25.5156,22.1563 Q25.1719,22.1563 24.9688,21.9531 Q24.7656,21.7656 24.6563,21.25 Q24.6094,20.8906 24.4219,20.7031 Q24.0938,20.3281 23.4844,20.1094 Q22.875,19.8906 22.25,19.8906 Q21.4844,19.8906 20.8438,20.2188 Q20.2188,20.5469 19.7188,21.2969 Q19.2344,22.0469 19.2344,23.0781 L19.2344,24.1719 Q19.2344,25.4063 20.125,26.2344 Q21.0156,27.0469 22.6094,27.0469 Q23.5469,27.0469 24.2031,26.7969 Q24.5938,26.6406 25.0156,26.2031 Q25.2813,25.9375 25.4219,25.8594 Q25.5781,25.7813 25.7813,25.7813 Q26.1094,25.7813 26.3594,26.0469 Q26.625,26.2969 26.625,26.6406 Q26.625,26.9844 26.2813,27.3906 Q25.7813,27.9688 24.9844,28.2969 Q23.9063,28.75 22.6094,28.75 Q21.0938,28.75 19.8906,28.125 Q18.9063,27.625 18.2188,26.5625 Q17.5313,25.4844 17.5313,24.2031 L17.5313,23.0469 Q17.5313,21.7188 18.1406,20.5781 Q18.7656,19.4219 19.8594,18.8125 Q20.9531,18.1875 22.1875,18.1875 Q22.9219,18.1875 23.5625,18.3594 Q24.2188,18.5156 24.7656,18.875 Z " fill="#000000"/><text fill="#000000" font-family="sans-serif" font-size="12" lengthAdjust="spacing" textLength="74" x="36" y="27.9102">DataManager</text><line style="stroke:#A80036;stroke-width:1.5;" x1="8" x2="112" y1="39" y2="39"/><line style="stroke:#A80036;stroke-width:1.5;" x1="8" x2="112" y1="47" y2="47"/><ellipse cx="18" cy="58" fill="#84BE84" rx="3" ry="3" style="stroke:#038048;stroke-width:1.0;"/><text fill="#000000" font-family="sans-serif" font-size="11" lengthAdjust="spacing" textLength="55" x="27" y="62.4189">void save()</text><!--MD5=[4b2d61224b33971326a22fe5d809d926]
class DataHandler--><rect codeLine="34" fill="#FEFECE" filter="url(#f15erl1pbph7zu)" height="61.8359" id="DataHandler" style="stroke:#A80036;stroke-width:1.5;" width="102" x="189" y="7"/><ellipse cx="204" cy="23" fill="#ADD1B2" rx="11" ry="11" style="stroke:#A80036;stroke-width:1.0;"/><path d="M206.7656,18.875 Q206.9219,18.6563 207.1094,18.5469 Q207.2969,18.4375 207.5156,18.4375 Q207.8906,18.4375 208.125,18.7031 Q208.3594,18.9531 208.3594,19.5625 L208.3594,21.0156 Q208.3594,21.625 208.125,21.8906 Q207.8906,22.1563 207.5156,22.1563 Q207.1719,22.1563 206.9688,21.9531 Q206.7656,21.7656 206.6563,21.25 Q206.6094,20.8906 206.4219,20.7031 Q206.0938,20.3281 205.4844,20.1094 Q204.875,19.8906 204.25,19.8906 Q203.4844,19.8906 202.8438,20.2188 Q202.2188,20.5469 201.7188,21.2969 Q201.2344,22.0469 201.2344,23.0781 L201.2344,24.1719 Q201.2344,25.4063 202.125,26.2344 Q203.0156,27.0469 204.6094,27.0469 Q205.5469,27.0469 206.2031,26.7969 Q206.5938,26.6406 207.0156,26.2031 Q207.2813,25.9375 207.4219,25.8594 Q207.5781,25.7813 207.7813,25.7813 Q208.1094,25.7813 208.3594,26.0469 Q208.625,26.2969 208.625,26.6406 Q208.625,26.9844 208.2813,27.3906 Q207.7813,27.9688 206.9844,28.2969 Q205.9063,28.75 204.6094,28.75 Q203.0938,28.75 201.8906,28.125 Q200.9063,27.625 200.2188,26.5625 Q199.5313,25.4844 199.5313,24.2031 L199.5313,23.0469 Q199.5313,21.7188 200.1406,20.5781 Q200.7656,19.4219 201.8594,18.8125 Q202.9531,18.1875 204.1875,18.1875 Q204.9219,18.1875 205.5625,18.3594 Q206.2188,18.5156 206.7656,18.875 Z " fill="#000000"/><text fill="#000000" font-family="sans-serif" font-size="12" lengthAdjust="spacing" textLength="70" x="218" y="27.9102">DataHandler</text><line style="stroke:#A80036;stroke-width:1.5;" x1="190" x2="290" y1="39" y2="39"/><line style="stroke:#A80036;stroke-width:1.5;" x1="190" x2="290" y1="47" y2="47"/><ellipse cx="200" cy="58" fill="#84BE84" rx="3" ry="3" style="stroke:#038048;stroke-width:1.0;"/><text fill="#000000" font-family="sans-serif" font-size="11" lengthAdjust="spacing" textLength="73" x="209" y="62.4189">boolean save()</text><rect fill="#FEFECE" filter="url(#f15erl1pbph7zu)" height="35.0938" style="stroke:#A80036;stroke-width:1.5;" width="67" x="947.5" y="300.5"/><text fill="#000000" font-family="sans-serif" font-size="12" lengthAdjust="spacing" textLength="53" x="954.5" y="314.957">Data.json</text><line style="stroke:#A80036;stroke-width:1.5;" x1="948.5" x2="1013.5" y1="319.5938" y2="319.5938"/><!--MD5=[bf99ea6b639ad936ef9c540cfa70e5cb]
link DataManager to DataHandler--><!--MD5=[bf99ea6b639ad936ef9c540cfa70e5cb]
link DataManager to DataHandler--><path codeLine="49" d="M113.03,38 C136.99,38 165.17,38 188.89,38 " fill="none" id="DataManager-DataHandler" style="stroke:#A80036;stroke-width:1.0;"/><polygon fill="#000000" points="140.5,26.1758,131.4549,23.2369,131.4549,29.1147,140.5,26.1758" style="stroke:#000000;stroke-width:1.0;"/><text fill="#000000" font-family="sans-serif" font-size="13" lengthAdjust="spacing" textLength="26" x="144.5" y="31.4951">save</text><!--MD5=[70abef7e4d9b2e24f06d66fe19e9a7ef]
link DataHandler to ArrayUserSerializer--><!--MD5=[70abef7e4d9b2e24f06d66fe19e9a7ef]
link DataHandler to ArrayUserSerializer--><path codeLine="50" d="M291.2,38 C319.09,38 354.34,38 386.29,38 " fill="none" id="DataHandler-ArrayUserSerializer" style="stroke:#A80036;stroke-width:1.0;"/><polygon fill="#000000" points="318.25,26.1758,309.2049,23.2369,309.2049,29.1147,318.25,26.1758" style="stroke:#000000;stroke-width:1.0;"/><text fill="#000000" font-family="sans-serif" font-size="13" lengthAdjust="spacing" textLength="46" x="322.25" y="31.4951">userList</text><!--MD5=[436555e15c6b69be49179d670e05f95e]
link ArrayUserSerializer to ArrayAccountSerializer--><!--MD5=[b44c1dca72edbc55387dc57e5a51b7d2]
link ArrayAccountSerializer to ArrayTransactionSerializer--><!--MD5=[ff32b750c4e6fa3e9c07e57848a1c5ba]
link ArrayUserSerializer to UserSerializer--><!--MD5=[ff32b750c4e6fa3e9c07e57848a1c5ba]
link ArrayUserSerializer to UserSerializer--><path codeLine="54" d="M557.67,38 C596.38,38 641.22,38 676.37,38 " fill="none" id="ArrayUserSerializer-UserSerializer" style="stroke:#A80036;stroke-width:1.0;"/><polygon fill="#000000" points="607,26.1758,597.9549,23.2369,597.9549,29.1147,607,26.1758" style="stroke:#000000;stroke-width:1.0;"/><text fill="#000000" font-family="sans-serif" font-size="13" lengthAdjust="spacing" textLength="25" x="611" y="31.4951">user</text><!--MD5=[bff6cf91cd074bcc10d9888549fcbe92]
link UserSerializer to AccountSerializer--><!--MD5=[8d46c546b137a1986c70f9fd3ad5c8c7]
link AccountSerializer to TransactionSerializer--><!--MD5=[41f9777708f5b07fc4f0b5b5c2a3dfa5]
link DataHandler to ArrayAccountSerializer--><path codeLine="51" d="M288.66,69.11 C325.96,92.19 377.17,123.89 414.44,146.95 " fill="none" id="DataHandler-ArrayAccountSerializer" style="stroke:#A80036;stroke-width:1.0;"/><polygon fill="#000000" points="373.2517,110.807,367.1069,103.548,364.0137,108.5462,373.2517,110.807" style="stroke:#000000;stroke-width:1.0;"/><text fill="#000000" font-family="sans-serif" font-size="13" lengthAdjust="spacing" textLength="67" x="378" y="113.4951">accountList</text><!--MD5=[572dd1b20a8cc9aa5378662778e3011f]
link DataHandler to ArrayTransactionSerializer--><path codeLine="52" d="M233.65,69.08 C227.74,105.37 223.48,166.74 251,209 C275.72,246.96 318.3,272.36 358.44,288.93 " fill="none" id="DataHandler-ArrayTransactionSerializer" style="stroke:#A80036;stroke-width:1.0;"/><polygon fill="#000000" points="258.4682,182.5241,256.5591,173.2071,251.4473,176.1087,258.4682,182.5241" style="stroke:#000000;stroke-width:1.0;"/><text fill="#000000" font-family="sans-serif" font-size="13" lengthAdjust="spacing" textLength="85" x="265" y="183.4951">transactionList</text><!--MD5=[037e66807122091758c69e142ccf48da]
link ArrayAccountSerializer to AccountSerializer--><path codeLine="55" d="M557.69,178 C596.09,178 639.65,178 675.09,178 " fill="none" id="ArrayAccountSerializer-AccountSerializer" style="stroke:#A80036;stroke-width:1.0;"/><polygon fill="#000000" points="596,166.1758,586.9549,163.2369,586.9549,169.1147,596,166.1758" style="stroke:#000000;stroke-width:1.0;"/><text fill="#000000" font-family="sans-serif" font-size="13" lengthAdjust="spacing" textLength="46" x="600" y="171.4951">account</text><!--MD5=[b327580c875a0821a42790bac2193116]
link ArrayTransactionSerializer to TransactionSerializer--><path codeLine="56" d="M557.74,318 C594.92,318 636.54,318 671.44,318 " fill="none" id="ArrayTransactionSerializer-TransactionSerializer" style="stroke:#A80036;stroke-width:1.0;"/><polygon fill="#000000" points="585,306.1758,575.9549,303.2369,575.9549,309.1147,585,306.1758" style="stroke:#000000;stroke-width:1.0;"/><text fill="#000000" font-family="sans-serif" font-size="13" lengthAdjust="spacing" textLength="64" x="589" y="311.4951">transaction</text><!--MD5=[081b6d96f2f8fe11e2652dfc52ea09b3]
link UserSerializer to Data.json--><path codeLine="58" d="M763.63,69.25 C782.68,90.89 808.93,120.73 832,147 C881.2,203.03 939.44,269.53 966.21,300.1 " fill="none" id="UserSerializer-Data.json" style="stroke:#A80036;stroke-width:1.0;"/><polygon fill="#000000" points="892.2979,181.9339,888.5409,173.1969,884.1229,177.0738,892.2979,181.9339" style="stroke:#000000;stroke-width:1.0;"/><text fill="#000000" font-family="sans-serif" font-size="13" lengthAdjust="spacing" textLength="32" x="898" y="183.4951">users</text><!--MD5=[9425257afc21b61e64eb74f2a5b5e3f2]
link AccountSerializer to Data.json--><path codeLine="59" d="M776.7,209.31 C794.14,224.92 816.71,243.45 839,257 C873.88,278.2 917.59,295.43 947.24,305.9 " fill="none" id="AccountSerializer-Data.json" style="stroke:#A80036;stroke-width:1.0;"/><polygon fill="#000000" points="848.3507,250.6399,841.9286,243.625,839.0319,248.7395,848.3507,250.6399" style="stroke:#000000;stroke-width:1.0;"/><text fill="#000000" font-family="sans-serif" font-size="13" lengthAdjust="spacing" textLength="53" x="853" y="253.4951">accounts</text><!--MD5=[933b4b693a7c89f2b57ee4a601d8e369]
link TransactionSerializer to Data.json--><path codeLine="60" d="M826.58,318 C867.54,318 915.72,318 947.23,318 " fill="none" id="TransactionSerializer-Data.json" style="stroke:#A80036;stroke-width:1.0;"/><polygon fill="#000000" points="854,306.1758,844.9549,303.2369,844.9549,309.1147,854,306.1758" style="stroke:#000000;stroke-width:1.0;"/><text fill="#000000" font-family="sans-serif" font-size="13" lengthAdjust="spacing" textLength="71" x="858" y="311.4951">transactions</text><!--MD5=[21e009d2349967f7df2863abcff8073c]
@startuml
together {
    Class UserSerializer {
        + void Serialize(User)
    }

    Class AccountSerializer {
        + void Serialize(Account)
    }

    class TransactionSerializer {
        + void Serialize(Transaction)
    }
}

together {
    class ArrayUserSerializer {
        + void Serialize(Array of Users)
    }

    class ArrayAccountSerializer {
        + void Serialize(Array of Accounts)
    }

    class ArrayTransactionSerializer {
        + void Serialize(Array of Transations)
    }
}


class DataManager {
    +void save()
}

class DataHandler {
    +boolean save()
}

object Data.json

DataManager -[hidden]r-> DataHandler
DataHandler -[hidden]r-> ArrayUserSerializer
ArrayUserSerializer -[hidden]d-> ArrayAccountSerializer
ArrayAccountSerializer -[hidden]d-> ArrayTransactionSerializer

ArrayUserSerializer -[hidden]> UserSerializer
UserSerializer -[hidden]d-> AccountSerializer
AccountSerializer -[hidden]d-> TransactionSerializer

DataManager - DataHandler : save >
DataHandler - ArrayUserSerializer : userList >
DataHandler - ArrayAccountSerializer : accountList >
DataHandler - ArrayTransactionSerializer : transactionList >

ArrayUserSerializer - UserSerializer : user >
ArrayAccountSerializer - AccountSerializer : account >
ArrayTransactionSerializer - TransactionSerializer : transaction >

UserSerializer - Data.json : users >
AccountSerializer - Data.json : accounts >
TransactionSerializer - Data.json : transactions >



@enduml

PlantUML version 1.2021.7(Sun May 23 14:40:07 CEST 2021)
(GPL source distribution)
Java Runtime: Java(TM) SE Runtime Environment
JVM: Java HotSpot(TM) 64-Bit Server VM
Default Encoding: Cp1252
Language: en
Country: US
--></g></svg>